<svg xmlns="http://www.w3.org/2000/svg" version="1.1" xmlns:xlink="http://www.w3.org/1999/xlink" width="512"
  height="512" x="0" y="0" viewBox="0 0 512 512" style="enable-background:new 0 0 512 512" xml:space="preserve"
  class="">
  <g>
    <path
      d="M437.02 74.98C388.664 26.63 324.375 0 255.996 0 187.613 0 123.328 26.629 74.973 74.98 32.305 117.648 6.003 174.21.914 234.246c-4.863 57.395 9.777 114.918 41.293 162.66l-7.55 63.778c-.544 4.562 1.038 9.12 4.288 12.37s7.805 4.837 12.371 4.29l63.778-7.555C156.836 497.344 206.043 512 256.114 512c7.198 0 14.425-.305 21.64-.918 60.035-5.09 116.598-31.39 159.266-74.059C485.37 388.672 512 324.383 512 256c0-68.379-26.629-132.664-74.98-181.02zm-21.215 340.832c-77.356 77.356-198.637 88.329-288.387 26.102a14.98 14.98 0 0 0-10.309-2.57l-50.425 5.969 5.972-50.422a15.006 15.006 0 0 0-2.57-10.313C7.856 294.832 18.832 173.551 96.187 96.191c88.122-88.113 231.5-88.113 319.618 0 88.117 88.122 88.117 231.504 0 319.622zm0 0"
      fill="#c4cfde" opacity="1" data-original="#c4cfde" class=""></path>
    <path
      d="m408.914 330.426-45.976-45.977c-5.668-5.668-13.2-8.789-21.215-8.789-8.012 0-15.547 3.121-21.215 8.79l-7.352 7.355c-7.902 7.898-20.734 8.437-28.734 1.242l-65.473-65.473c-7.191-8-6.652-20.832 1.246-28.73l7.356-7.356c5.668-5.664 8.789-13.199 8.789-21.215 0-8.011-3.121-15.546-8.79-21.21l-45.976-45.977c-11.695-11.695-30.726-11.7-42.426 0l-23.199 23.203c-17.969 17.965-27.867 41.856-27.867 67.27 0 25.41 9.898 49.3 27.867 67.27L251.172 396.05c17.969 17.969 41.86 27.867 67.27 27.867 25.413 0 49.3-9.898 67.269-27.867l23.203-23.2c5.668-5.667 8.79-13.199 8.79-21.214-.005-8.012-3.126-15.547-8.79-21.211zM272.383 374.84 137.16 239.613c-12.305-12.3-19.078-28.656-19.078-46.054 0-17.399 6.773-33.754 19.078-46.059l23.2-23.2 45.976 45.977-7.356 7.356c-19.527 19.523-20.363 50.488-1.902 70.484.137.145.274.29.418.43l65.953 65.957c.145.14.285.281.434.414 19.996 18.46 50.957 17.629 70.484-1.898l7.36-7.356 45.976 45.977L364.5 374.84c-12.305 12.3-28.66 19.078-46.059 19.078-17.394 0-33.754-6.777-46.058-19.078zm0 0"
      fill="#c4cfde" opacity="1" data-original="#c4cfde" class=""></path>
  </g>
</svg>