<?xml version="1.0" encoding="utf-8"?>
<!-- Generator: Adobe Illustrator 24.2.1, SVG Export Plug-In . SVG Version: 6.00 Build 0)  -->
<svg version="1.1" id="Layer_1" xmlns="http://www.w3.org/2000/svg" xmlns:xlink="http://www.w3.org/1999/xlink" x="0px" y="0px"
	 viewBox="0 0 380.1 165.2" style="enable-background:new 0 0 380.1 165.2;" xml:space="preserve">
<style type="text/css">
	.st0{fill-rule:evenodd;clip-rule:evenodd;fill:#8C96A1;}
	.st1{fill:#8C96A1;}
	.st2{fill-rule:evenodd;clip-rule:evenodd;fill:url(#SVGID_1_);stroke:#0C4C75;stroke-width:0.5;}
</style>
<g transform="translate(0 2)">
	<path class="st0" d="M39.2,77.3l-36.6,82h23.9l7.1-17.4h36.8l7.1,17.4h23.9l-36.7-82H39.2z M52.2,96.6l6.2,15.6l6.2,15.6l-12.4,0
		l-12.4,0l6.2-15.6L52.2,96.6L52.2,96.6z M216.8,77.3l-36.6,82h23.9l7.1-17.4H248l7.1,17.4h23.9l-36.7-82
		C242.4,77.3,216.8,77.3,216.8,77.3z M229.8,96.6l6.2,15.6l6.2,15.6l-12.4,0l-12.4,0l6.2-15.6L229.8,96.6L229.8,96.6z M285.4,77
		h27.2l17.4,26.2L348.4,77h26.8l-32.3,39.8l34.4,42.8h-27.2l-19.7-27.9L311,159.6h-29l35-42.4L285.4,77z"/>
	<path class="st1" d="M170.3,42.3l-32.6,32L149,84.4l10.6-10.7l1.2,0v61.2c0,7.8-6.3,14-14,14h-11.1c-7.8,0-14-6.3-14-14v-6.5H99.9
		v8.1c0,14,11.3,25.3,25.3,25.3H154c14,0,25.3-11.3,25.3-25.3V73.8l0.8,0l12.4,10.6l9.7-10.1L170.3,42.3L170.3,42.3z"/>
	<path class="st1" d="M110.6,121.7l32.6-32l-11.2-10.1l-10.6,10.7l-1.2,0V29c0-7.8,6.3-14,14-14h11.1c7.8,0,14,6.3,14,14v6.5H181
		v-8.1c0-14-11.3-25.3-25.3-25.3h-28.8c-14,0-25.3,11.3-25.3,25.3v62.7l-0.8,0L88.3,79.5l-9.7,10.1L110.6,121.7L110.6,121.7z"/>
</g>
<linearGradient id="SVGID_1_" gradientUnits="userSpaceOnUse" x1="189.9382" y1="165.8757" x2="189.9382" y2="5.2936" gradientTransform="matrix(1 0 0 -1 0 166.6569)">
	<stop  offset="0" style="stop-color:#70B0DF"/>
	<stop  offset="0.5" style="stop-color:#1B81C5"/>
	<stop  offset="1" style="stop-color:#4A98CE"/>
</linearGradient>
<path class="st2" d="M126.9,2.1c-14,0-25.3,11.3-25.3,25.3v62.7l-0.8,0L88.3,79.5l-9.7,10.1l32,32l32.6-32l-11.2-10.1l-10.6,10.7
	l-1.2,0V29c0-7.8,6.3-14,14-14h11.1c7.8,0,14,6.3,14,14v6.5H181v-8.1c0-14-11.3-25.3-25.3-25.3H126.9z M170.3,42.3l-32.6,32
	L149,84.4l10.6-10.7l1.2,0v61.2c0,7.8-6.3,14-14,14h-11.1c-7.8,0-14-6.3-14-14v-6.5H99.9v8.1c0,14,11.3,25.3,25.3,25.3H154
	c14,0,25.3-11.3,25.3-25.3V73.8l0.8,0l12.4,10.6l9.7-10.1L170.3,42.3L170.3,42.3z M285.4,77l31.6,40.1l-35,42.4h29l19.4-27.9
	l19.7,27.9h27.2l-34.4-42.8L375.2,77h-26.8L330,103.1L312.6,77H285.4z M39.2,77.3l-36.6,82h23.9l7.1-17.4h36.8l7.1,17.4h23.9
	l-36.7-82H39.2z M216.8,77.3l-36.6,82h23.9l7.1-17.4H248l7.1,17.4h23.9l-36.7-82C242.4,77.3,216.8,77.3,216.8,77.3z M52.2,96.6
	l6.2,15.6l6.2,15.6l-12.4,0l-12.4,0l6.2-15.6L52.2,96.6L52.2,96.6z M229.8,96.6l6.2,15.6l6.2,15.6l-12.4,0l-12.4,0l6.2-15.6
	L229.8,96.6L229.8,96.6z"/>
</svg>
