<?xml version="1.0" encoding="utf-8"?>
<!-- Generator: Adobe Illustrator 24.2.1, SVG Export Plug-In . SVG Version: 6.00 Build 0)  -->
<svg version="1.1" id="logosandtypes_com" xmlns="http://www.w3.org/2000/svg" xmlns:xlink="http://www.w3.org/1999/xlink" x="0px"
	 y="0px" viewBox="0 0 151.2 63.4" style="enable-background:new 0 0 151.2 63.4;" xml:space="preserve">
<style type="text/css">
	.st0{fill:none;}
	.st1{fill:url(#SVGID_1_);}
	.st2{fill:url(#SVGID_2_);}
	.st3{fill:url(#SVGID_3_);}
	.st4{fill:#13569B;}
	.st5{fill:url(#SVGID_4_);}
	.st6{fill:#266AB4;}
	.st7{fill:url(#SVGID_5_);}
	.st8{fill:url(#SVGID_6_);}
	.st9{fill:url(#SVGID_7_);}
	.st10{fill:#2C75B2;}
	.st11{fill:#145B9E;}
	.st12{fill:url(#SVGID_8_);}
	.st13{fill:#1982C5;}
	.st14{fill:url(#SVGID_9_);}
	.st15{fill:#277BBF;}
	.st16{fill:url(#SVGID_10_);}
	.st17{fill:url(#SVGID_11_);}
	.st18{fill:#269FDA;}
	.st19{fill:url(#SVGID_12_);}
	.st20{fill:url(#SVGID_13_);}
	.st21{fill:#2898D5;}
	.st22{fill:#295EAC;}
	.st23{fill:#2862AE;}
	.st24{fill:#1D60AB;}
	.st25{fill:url(#SVGID_14_);}
	.st26{fill:#61C5EC;}
	.st27{fill:url(#SVGID_15_);}
	.st28{fill:url(#SVGID_16_);}
	.st29{fill:url(#SVGID_17_);}
	.st30{fill:url(#SVGID_18_);}
	.st31{fill:url(#SVGID_19_);}
	.st32{fill:#7ECBEB;}
</style>
<path class="st0" d="M0.3-43.2h150v150H0.3V-43.2z"/>
<linearGradient id="SVGID_1_" gradientUnits="userSpaceOnUse" x1="9.29" y1="381.8985" x2="193.13" y2="381.8985" gradientTransform="matrix(1 0 0 1 0.33 -350)">
	<stop  offset="0" style="stop-color:#206BB5"/>
	<stop  offset="0.4" style="stop-color:#3DADE2"/>
	<stop  offset="0.85" style="stop-color:#2397D4"/>
	<stop  offset="1" style="stop-color:#2397D4"/>
</linearGradient>
<path class="st1" d="M126,1.9c-10.4,1.3-15.4,7.1-18,15.5c-5,15.7-10.9,32.4-10.8,32.3C91.7,33.1,89.7,3,73.6,3H41.5
	C27.7,3,8.6,28.7,0,62l16-0.2c11.3-1.1,16.6-7.3,19.3-16c2.2-7,4-13,5.6-17.9C44.8,22.5,52.4,14,52.4,14
	c5.5,16.7,7.5,46.4,23.5,46.4s30.9-0.1,31.3-0.1c11.9-1.5,24.1-23.3,43.9-58.6C151.1,1.7,126,1.9,126,1.9z M64.9,3.1L65.4,3
	L64.9,3.1z"/>
<linearGradient id="SVGID_2_" gradientUnits="userSpaceOnUse" x1="-169.5549" y1="284.5168" x2="-169.0749" y2="284.5168" gradientTransform="matrix(0 149.73 149.73 0 -42534.5977 25389.5273)">
	<stop  offset="0" style="stop-color:#2693D1"/>
	<stop  offset="0.35" style="stop-color:#67CEF4"/>
	<stop  offset="0.85" style="stop-color:#277BBF"/>
	<stop  offset="1" style="stop-color:#277BBF"/>
</linearGradient>
<path class="st2" d="M52.5,13.9C58,30.6,60,60.3,76,60.3c1.2,0,2.5-0.1,3.7-0.4c-14.5-3.4-16.2-32.8-25-48
	C53.9,12.6,53.2,13.3,52.5,13.9z"/>
<linearGradient id="SVGID_3_" gradientUnits="userSpaceOnUse" x1="-169.5728" y1="284.4767" x2="-169.0928" y2="284.4767" gradientTransform="matrix(9.402227e-15 153.55 153.55 -9.402227e-15 -43612.5898 26038.959)">
	<stop  offset="0" style="stop-color:#1377BC"/>
	<stop  offset="0.36" style="stop-color:#3DADE2"/>
	<stop  offset="0.85" style="stop-color:#2DABE2"/>
	<stop  offset="1" style="stop-color:#2DABE2"/>
</linearGradient>
<path class="st3" d="M54.6,12c8.8,15.2,10.5,44.6,25,48c1.2-0.2,2.3-0.5,3.4-0.9c-13-6.4-16.6-34.9-26.6-48.7
	C55.8,10.9,55.2,11.4,54.6,12z"/>
<path class="st4" d="M67.3,2.9c-1.2,0-2.5,0.1-3.7,0.3c-3.5,0.7-6.8,2.1-9.8,4.1c0.9,0.9,1.8,1.9,2.6,3c3-2.6,6.3-4.6,10-6.1
	c1.2-0.4,2.5-0.8,3.7-1C69.2,3,68.3,2.9,67.3,2.9z"/>
<linearGradient id="SVGID_4_" gradientUnits="userSpaceOnUse" x1="-172.2811" y1="283.1883" x2="-171.8011" y2="283.1883" gradientTransform="matrix(7.481368e-15 -122.18 -122.18 -7.481368e-15 34683.5938 -20990.541)">
	<stop  offset="0" style="stop-color:#2865B0"/>
	<stop  offset="0.5" style="stop-color:#3FBCED"/>
	<stop  offset="1" style="stop-color:#3FBCED;stop-opacity:0.42"/>
</linearGradient>
<path class="st5" d="M93.2,53.2c1.3-1.1,2.7-2.2,4-3.5C91.7,33.1,89.7,3,73.6,3c-1.2,0-2.3,0.1-3.5,0.3
	C84.8,6.9,86.7,38.7,93.2,53.2z"/>
<path class="st6" d="M92.9,56.7c-0.6-0.6-1.2-1.3-1.8-1.9c-2.5,1.8-5.2,3.2-8.1,4.3c1,0.5,2,0.8,3,1c0.8,0.2,1.7,0.3,2.6,0.3
	c2.5,0.1,5.1-0.3,7.4-1.3C94.9,58.3,93.8,57.6,92.9,56.7z"/>
<linearGradient id="SVGID_5_" gradientUnits="userSpaceOnUse" x1="-169.5736" y1="284.3742" x2="-169.0936" y2="284.3742" gradientTransform="matrix(9.762272e-15 159.43 159.43 -9.762272e-15 -45257.9766 27028.8867)">
	<stop  offset="0" style="stop-color:#206BB5"/>
	<stop  offset="0.4" style="stop-color:#3DADE2"/>
	<stop  offset="0.85" style="stop-color:#2397D4"/>
	<stop  offset="1" style="stop-color:#2397D4"/>
</linearGradient>
<path class="st7" d="M66.4,4.3c13.1,6.8,14.2,37.9,24.7,50.5c0.7-0.5,1.4-1,2.1-1.6c-6.5-14.5-8.4-46.3-23-49.9
	C68.9,3.5,67.7,3.8,66.4,4.3z"/>
<linearGradient id="SVGID_6_" gradientUnits="userSpaceOnUse" x1="-169.6676" y1="284.3835" x2="-169.1876" y2="284.3835" gradientTransform="matrix(1.038072e-14 169.53 169.53 -1.038072e-14 -48137.7773 28756.8281)">
	<stop  offset="0" style="stop-color:#174479"/>
	<stop  offset="0.39" style="stop-color:#1D87C9"/>
	<stop  offset="0.78" style="stop-color:#165297"/>
	<stop  offset="1" style="stop-color:#165297"/>
</linearGradient>
<path class="st8" d="M56.4,10.4C66.4,24.1,70,52.7,83,59.1c2.9-1.1,5.6-2.5,8.1-4.3C80.7,42.1,79.5,11.1,66.4,4.3
	C62.8,5.7,59.4,7.8,56.4,10.4z"/>
<linearGradient id="SVGID_7_" gradientUnits="userSpaceOnUse" x1="818.9948" y1="-1833.7655" x2="821.8548" y2="-1833.7655" gradientTransform="matrix(4.04 0 0 -4.04 -3266.3701 -7389.7642)">
	<stop  offset="0" style="stop-color:#3FBCED;stop-opacity:0.7"/>
	<stop  offset="1" style="stop-color:#20ACD8"/>
</linearGradient>
<path class="st9" d="M46.1,13.5c-1.9,4.7-3.7,9.5-5.1,14.3c3.4-5,7.3-9.6,11.5-13.9c-0.5-1.5-1.1-3-1.7-4.5
	C49.2,10.7,47.6,12.1,46.1,13.5z"/>
<path class="st10" d="M52.2,8.4c-0.5,0.3-0.9,0.7-1.4,1c0.6,1.5,1.2,2.9,1.7,4.5c0.7-0.7,1.4-1.3,2.1-2C53.9,10.7,53.1,9.5,52.2,8.4
	z"/>
<path class="st11" d="M53.8,7.3c-0.5,0.3-1.1,0.7-1.7,1.1c0.9,1.1,1.7,2.3,2.4,3.5c0.6-0.5,1.2-1.1,1.8-1.6
	C55.6,9.3,54.8,8.3,53.8,7.3z"/>
<linearGradient id="SVGID_8_" gradientUnits="userSpaceOnUse" x1="-172.3279" y1="283.5692" x2="-171.8479" y2="283.5692" gradientTransform="matrix(7.287873e-15 -119.02 -119.02 -7.287873e-15 33878.0039 -20453.2402)">
	<stop  offset="0" style="stop-color:#166BB5"/>
	<stop  offset="0.6" style="stop-color:#5EC9F4;stop-opacity:0.55"/>
	<stop  offset="1" style="stop-color:#5EC9F4;stop-opacity:0.24"/>
</linearGradient>
<path class="st12" d="M143.1,1.6c-7.4,28.6-22.9,51.5-35.8,57.3c-0.2,0.1-0.5,0.2-0.7,0.3h-0.1l-0.2,0.1h-0.1l-0.3,0.1h-0.3
	l-0.2,0.1h-0.1c-0.1,0-0.2,0.1-0.3,0.1h-0.3h-0.1l-0.2,0.1h-0.3c0.6,0.2,1.2,0.3,1.8,0.3c12.3,0,24.7-22,45.2-58.7H143
	C143,1.3,143.1,1.6,143.1,1.6z"/>
<path class="st13" d="M46.1,13.5c1.5-1.4,3.1-2.8,4.7-4c-0.3-0.7-0.7-1.5-1.1-2.2C48.2,9.3,47,11.3,46.1,13.5z M47.2,4.3
	c1,0.9,1.8,1.9,2.5,3c0.2-0.3,0.5-0.5,0.7-0.8C49.4,5.6,48.3,4.8,47.2,4.3L47.2,4.3"/>
<linearGradient id="SVGID_9_" gradientUnits="userSpaceOnUse" x1="-172.2847" y1="282.6533" x2="-171.8047" y2="282.6533" gradientTransform="matrix(7.462386e-15 -121.87 -121.87 -7.462386e-15 34470.6641 -20937.5918)">
	<stop  offset="0" style="stop-color:#388DCC"/>
	<stop  offset="1" style="stop-color:#40A6DE"/>
</linearGradient>
<path class="st14" d="M9.1,47.9C21.7,23.6,27.7,8.2,38.3,4C27.4,8.3,15.1,24.4,9.1,47.9z"/>
<path class="st15" d="M50.4,6.5c-0.3,0.3-0.5,0.5-0.7,0.8c0.4,0.7,0.8,1.4,1.1,2.2c0.5-0.4,0.9-0.7,1.4-1C51.6,7.8,51,7.1,50.4,6.5"
	/>
<linearGradient id="SVGID_10_" gradientUnits="userSpaceOnUse" x1="-172.3148" y1="282.6577" x2="-171.8349" y2="282.6577" gradientTransform="matrix(7.253584e-15 -118.46 -118.46 -7.253584e-15 33511.0781 -20354.0508)">
	<stop  offset="0" style="stop-color:#269FDA"/>
	<stop  offset="1" style="stop-color:#269FDA;stop-opacity:0.55"/>
</linearGradient>
<path class="st16" d="M14.9,61.7h-1c12.8-0.4,18.6-6.8,21.5-16c2.2-7,4-13,5.6-17.9c-5.9,8.5-11.3,17.4-16.2,26.6
	C22.9,58.4,19.2,61.1,14.9,61.7z"/>
<linearGradient id="SVGID_11_" gradientUnits="userSpaceOnUse" x1="-172.5283" y1="282.4734" x2="-172.0483" y2="282.4734" gradientTransform="matrix(0 -100.1 -100.1 0 28306.0898 -17208.4512)">
	<stop  offset="0" style="stop-color:#1E5BA6"/>
	<stop  offset="0.5" style="stop-color:#269FDA"/>
	<stop  offset="0.92" style="stop-color:#7FC5E9"/>
	<stop  offset="1" style="stop-color:#7FC5E9"/>
</linearGradient>
<path class="st17" d="M14.9,61.7c4.3-0.6,8.1-3.4,10-7.3c4.8-9.2,10.2-18,16.1-26.6c1.5-4.9,3.2-9.7,5.1-14.3
	C35.4,23.7,24.7,40.5,14.9,61.7z"/>
<path class="st18" d="M9.1,47.9c-2.3,4.4-4.7,9-7.5,13.9h4.8C7.1,57.2,8,52.5,9.1,47.9z"/>
<linearGradient id="SVGID_12_" gradientUnits="userSpaceOnUse" x1="-174.3177" y1="283.0812" x2="-173.8367" y2="283.0812" gradientTransform="matrix(3.473099e-15 -56.72 -56.72 -3.473099e-15 16174.2148 -9858.2422)">
	<stop  offset="0" style="stop-color:#269FDA"/>
	<stop  offset="0.87" style="stop-color:#1795D3"/>
	<stop  offset="1" style="stop-color:#1795D3"/>
</linearGradient>
<path class="st19" d="M114.2,17.4c-2.4,7.8-4.4,14.2-6.1,19.5c6.7-9.2,13.2-20.7,19.5-34C120.3,5.2,116.4,10.4,114.2,17.4z"/>
<linearGradient id="SVGID_13_" gradientUnits="userSpaceOnUse" x1="-169.4039" y1="284.3633" x2="-168.9239" y2="284.3633" gradientTransform="matrix(-23.0582 130.7829 130.7829 23.0582 -40965.2852 15597.2988)">
	<stop  offset="0" style="stop-color:#40A6DE;stop-opacity:0.33"/>
	<stop  offset="0.96" style="stop-color:#2687C8"/>
	<stop  offset="1" style="stop-color:#2687C8"/>
</linearGradient>
<path class="st20" d="M108.3,58.4c-0.3,0.2-0.7,0.3-1,0.5c13-5.8,28.4-28.7,35.8-57.3h-1.5C124.7,32,119.2,52.4,108.3,58.4z"/>
<path class="st21" d="M99.9,55.9c2.8-3.4,5.1-9.3,8.3-18.9c-3.2,4.6-6.9,8.8-10.9,12.7C97.9,51.8,98.8,53.9,99.9,55.9z"/>
<path class="st6" d="M99.9,55.9c-0.9,1.1-1.9,2-3.1,2.7c-0.3,0.1-0.5,0.3-0.8,0.4c1.2,0.7,2.6,1.1,4,1.3l0.7,0.1h2.8l0.6-0.1
	c-1.9-0.8-3.4-2.3-4.3-4.1C99.8,56.2,99.9,55.9,99.9,55.9z"/>
<path class="st22" d="M76,60.3c1.2,0,2.5-0.1,3.7-0.4c1.2-0.2,2.3-0.5,3.4-0.9c1.7,0.8,3.6,1.3,5.6,1.3H76z M88.6,60.3
	c2.5,0.1,5.1-0.3,7.4-1.3c1.2,0.7,2.6,1.1,4,1.3l0.7,0.1h0.3L88.6,60.3z"/>
<path class="st23" d="M101.3,60.3h2.1c0.2,0,0.4-0.1,0.6-0.1c0.6,0.2,1.2,0.3,1.9,0.3h-4.7C101.2,60.5,101.3,60.3,101.3,60.3z"/>
<path class="st24" d="M97.2,49.7c-1.3,1.3-2.7,2.5-4,3.5c-0.7,0.6-1.4,1.1-2.1,1.6c0.6,0.7,1.2,1.4,1.8,2c0.9,0.9,2,1.7,3.1,2.3
	c0.3-0.1,0.5-0.3,0.8-0.4C98,58,99,57.1,99.9,56C98.8,53.9,97.9,51.9,97.2,49.7z"/>
<linearGradient id="SVGID_14_" gradientUnits="userSpaceOnUse" x1="-169.2358" y1="284.1771" x2="-168.7558" y2="284.1771" gradientTransform="matrix(7.576890e-15 123.74 123.74 -7.576890e-15 -35043.5273 20943.0391)">
	<stop  offset="0" style="stop-color:#258BCC"/>
	<stop  offset="0.5" style="stop-color:#2287C9"/>
	<stop  offset="1" style="stop-color:#164C8D"/>
</linearGradient>
<path class="st25" d="M136.9,1.6h-7.6c-0.4,0-0.8,0-1.2,0.1l-0.6,1.2c-6.3,13.3-12.8,24.8-19.5,34c-3.1,9.6-5.4,15.5-8.3,18.9
	c0.9,1.8,2.4,3.3,4.3,4.1h0.8l0.3-0.1h0.1l0.2-0.1h0.3l0.3-0.1h0.1l0.2-0.1h0.1l0.7-0.3c0.3-0.2,0.7-0.3,1-0.5
	c10.8-6,16.3-26.4,33.3-56.8h-4.7C136.7,1.9,136.9,1.6,136.9,1.6z"/>
<path class="st26" d="M50.4,6.5c0.6,0.6,1.2,1.3,1.8,2c0.5-0.4,1.1-0.8,1.7-1.1c-0.7-0.7-1.5-1.4-2.3-1.9
	C51.2,5.8,50.8,6.1,50.4,6.5"/>
<linearGradient id="SVGID_15_" gradientUnits="userSpaceOnUse" x1="-164.5802" y1="278.8245" x2="-164.1302" y2="278.8245" gradientTransform="matrix(28.5 11.82 11.82 -28.5 1440.4713 9892.3496)">
	<stop  offset="0" style="stop-color:#98D5ED"/>
	<stop  offset="0.7" style="stop-color:#57C1EA"/>
	<stop  offset="1" style="stop-color:#57C1EA"/>
</linearGradient>
<path class="st27" d="M42.8,3h1c2.8,0,5.5,0.9,7.7,2.5C53.9,3.6,56.7,3,60.7,3C60.8,2.9,42.4,2.9,42.8,3"/>
<linearGradient id="SVGID_16_" gradientUnits="userSpaceOnUse" x1="-170.3545" y1="274.1507" x2="-169.8645" y2="274.1507" gradientTransform="matrix(22.5121 -10.2119 -10.2119 -22.5121 6686.4878 4439.5317)">
	<stop  offset="0" style="stop-color:#7BCCEB"/>
	<stop  offset="1" style="stop-color:#45B7E9"/>
</linearGradient>
<path class="st28" d="M60.8,2.9c-4,0-6.8,0.7-9.2,2.5c0.8,0.6,1.6,1.2,2.3,1.9c3-2,6.3-3.4,9.8-4.1c1.2-0.2,2.4-0.3,3.7-0.4
	L60.8,2.9L60.8,2.9z"/>
<linearGradient id="SVGID_17_" gradientUnits="userSpaceOnUse" x1="-169.2253" y1="284.2585" x2="-168.7453" y2="284.2585" gradientTransform="matrix(7.410950e-15 121.03 121.03 -7.410950e-15 -34291.0586 20486.4785)">
	<stop  offset="0" style="stop-color:#2DA6DE"/>
	<stop  offset="1" style="stop-color:#3EAAE0;stop-opacity:0"/>
</linearGradient>
<path class="st29" d="M108.1,36.9c1.7-5.3,3.7-11.7,6.1-19.5c2.2-7,6.1-12.3,13.4-14.5l0.6-1.2c-11.9,0.7-17.4,6.8-20.2,15.7
	c-4.9,15.6-7.8,25.8-10.7,32.2C101.2,45.7,104.9,41.5,108.1,36.9z"/>
<linearGradient id="SVGID_18_" gradientUnits="userSpaceOnUse" x1="6.17" y1="382.5154" x2="49.37" y2="382.5154" gradientTransform="matrix(1 0 0 1 0.33 -350)">
	<stop  offset="0" style="stop-color:#165196"/>
	<stop  offset="1" style="stop-color:#1982C5"/>
</linearGradient>
<path class="st30" d="M6.5,61.9l8.4-0.1c4.4-9.6,9.5-19,15.2-28c4.6-7.4,9.9-14.2,16.1-20.3c0.9-2.2,2.1-4.3,3.6-6.2
	c-0.7-1.5-2-2.8-3.5-3.5c-2.4-1.1-5.2-1-7.6,0.2c-3.7,1.3-7.2,4.3-10.5,9c-5.8,8.8-12.2,20.7-19,35C8,52.5,7.1,57.2,6.5,61.9z"/>
<linearGradient id="SVGID_19_" gradientUnits="userSpaceOnUse" x1="-0.33" y1="382.3496" x2="42.51" y2="382.3496" gradientTransform="matrix(1 0 0 1 0.33 -350)">
	<stop  offset="0" style="stop-color:#269FDA;stop-opacity:0.25"/>
	<stop  offset="1" style="stop-color:#269FDA"/>
</linearGradient>
<path class="st31" d="M0,61.8h1.7c2.7-4.8,5.2-9.5,7.5-13.9c2.4-9.9,6.5-19.4,12-28c6.3-9.7,13.5-15.6,21.7-17
	c-4.6-0.6-10.3,1.4-19,10.6c-5.5,6-10.5,14.3-15.2,24.1C5,45.4,2.1,53.5,0,61.8z"/>
<path class="st32" d="M50.4,6.5c-2.1-2-4.7-3.2-7.6-3.6c2-0.2,3.9,0.1,5.7,0.8c1.1,0.4,2.1,0.9,3,1.7C51.5,5.4,50.4,6.5,50.4,6.5z"
	/>
</svg>
