<svg id="Layer_1" data-name="Layer 1" xmlns="http://www.w3.org/2000/svg" xmlns:xlink="http://www.w3.org/1999/xlink" viewBox="0 0 67.95 32.02"><defs><style>.cls-1{clip-path:url(#clip-path);}.cls-2{fill:none;}.cls-3{clip-path:url(#clip-path-2);}.cls-4{clip-path:url(#clip-path-3);}.cls-5{clip-path:url(#clip-path-6);}.cls-6{clip-path:url(#clip-path-7);}.cls-7{fill:url(#linear-gradient);}.cls-8{clip-path:url(#clip-path-17);}.cls-9{clip-path:url(#clip-path-18);}.cls-10{clip-path:url(#clip-path-19);}.cls-11{clip-path:url(#clip-path-22);}.cls-12{clip-path:url(#clip-path-23);}.cls-13{clip-path:url(#clip-path-24);}.cls-14{fill:url(#linear-gradient-3);}.cls-15{clip-path:url(#clip-path-25);}.cls-16{clip-path:url(#clip-path-26);}.cls-17{clip-path:url(#clip-path-27);}.cls-18{clip-path:url(#clip-path-30);}.cls-19{clip-path:url(#clip-path-31);}.cls-20{clip-path:url(#clip-path-32);}.cls-21{fill:url(#linear-gradient-4);}.cls-22{clip-path:url(#clip-path-33);}.cls-23{clip-path:url(#clip-path-34);}.cls-24{clip-path:url(#clip-path-35);}.cls-25{clip-path:url(#clip-path-38);}.cls-26{clip-path:url(#clip-path-39);}.cls-27{clip-path:url(#clip-path-40);}.cls-28{fill:url(#linear-gradient-5);}.cls-29{clip-path:url(#clip-path-41);}.cls-30{clip-path:url(#clip-path-42);}.cls-31{clip-path:url(#clip-path-43);}.cls-32{clip-path:url(#clip-path-46);}.cls-33{clip-path:url(#clip-path-47);}.cls-34{clip-path:url(#clip-path-48);}.cls-35{fill:url(#linear-gradient-6);}.cls-36{clip-path:url(#clip-path-49);}.cls-37{clip-path:url(#clip-path-50);}.cls-38{clip-path:url(#clip-path-51);}.cls-39{clip-path:url(#clip-path-54);}.cls-40{clip-path:url(#clip-path-55);}.cls-41{clip-path:url(#clip-path-56);}.cls-42{fill:url(#linear-gradient-7);}.cls-43{clip-path:url(#clip-path-57);}.cls-44{clip-path:url(#clip-path-58);}.cls-45{clip-path:url(#clip-path-59);}.cls-46{clip-path:url(#clip-path-62);}.cls-47{clip-path:url(#clip-path-63);}.cls-48{clip-path:url(#clip-path-64);}.cls-49{fill:url(#linear-gradient-8);}.cls-50{clip-path:url(#clip-path-65);}.cls-51{clip-path:url(#clip-path-66);}.cls-52{clip-path:url(#clip-path-67);}.cls-53{clip-path:url(#clip-path-70);}.cls-54{clip-path:url(#clip-path-71);}.cls-55{clip-path:url(#clip-path-72);}.cls-56{fill:url(#linear-gradient-9);}.cls-57{clip-path:url(#clip-path-73);}.cls-58{clip-path:url(#clip-path-74);}.cls-59{clip-path:url(#clip-path-75);}.cls-60{fill:url(#linear-gradient-10);}.cls-61{clip-path:url(#clip-path-76);}.cls-62{clip-path:url(#clip-path-77);}.cls-63{fill:url(#linear-gradient-11);}.cls-64{fill:#14559a;}.cls-65{mask:url(#mask);}.cls-66{clip-path:url(#clip-path-79);}.cls-67{clip-path:url(#clip-path-80);}.cls-68{clip-path:url(#clip-path-81);}.cls-69{clip-path:url(#clip-path-82);}.cls-70{clip-path:url(#clip-path-83);}.cls-71{fill:url(#linear-gradient-12);}.cls-72{mask:url(#mask-2);}.cls-73{clip-path:url(#clip-path-84);}.cls-74{clip-path:url(#clip-path-85);}.cls-75{fill:#3092c4;}.cls-76{fill:#1969bc;}.cls-77{clip-path:url(#clip-path-86);}.cls-78{clip-path:url(#clip-path-87);}.cls-79{fill:url(#linear-gradient-13);}.cls-80{clip-path:url(#clip-path-89);}.cls-81{clip-path:url(#clip-path-90);}.cls-82{clip-path:url(#clip-path-91);}.cls-83{fill:url(#linear-gradient-14);}.cls-84{mask:url(#mask-3);}.cls-85{clip-path:url(#clip-path-92);}.cls-86{clip-path:url(#clip-path-93);}.cls-87{fill:#33bdf2;}.cls-88{fill:#2b74b1;}.cls-89{fill:#125a9e;}.cls-90{mask:url(#mask-4);}.cls-91{clip-path:url(#clip-path-94);}.cls-92{clip-path:url(#clip-path-95);}.cls-93{clip-path:url(#clip-path-96);}.cls-94{clip-path:url(#clip-path-97);}.cls-95{fill:url(#linear-gradient-15);}.cls-96{mask:url(#mask-5);}.cls-97{clip-path:url(#clip-path-99);}.cls-98{clip-path:url(#clip-path-100);}.cls-99{fill:#05a1e6;}.cls-100{fill:#0d82ca;}.cls-101{clip-path:url(#clip-path-101);}.cls-102{clip-path:url(#clip-path-102);}.cls-103{clip-path:url(#clip-path-103);}.cls-104{fill:url(#linear-gradient-16);}.cls-105{fill:#127bca;}.cls-106{mask:url(#mask-6);}.cls-107{clip-path:url(#clip-path-104);}.cls-108{clip-path:url(#clip-path-105);}.cls-109{clip-path:url(#clip-path-106);}.cls-110{clip-path:url(#clip-path-107);}.cls-111{clip-path:url(#clip-path-108);}.cls-112{fill:url(#linear-gradient-17);}.cls-113{clip-path:url(#clip-path-109);}.cls-114{clip-path:url(#clip-path-110);}.cls-115{fill:url(#linear-gradient-18);}.cls-116{clip-path:url(#clip-path-112);}.cls-117{clip-path:url(#clip-path-113);}.cls-118{clip-path:url(#clip-path-114);}.cls-119{fill:url(#linear-gradient-19);}.cls-120{clip-path:url(#clip-path-115);}.cls-121{clip-path:url(#clip-path-116);}.cls-122{fill:url(#linear-gradient-20);}.cls-123{mask:url(#mask-7);}.cls-124{clip-path:url(#clip-path-118);}.cls-125{clip-path:url(#clip-path-119);}.cls-126{clip-path:url(#clip-path-120);}.cls-127{clip-path:url(#clip-path-121);}.cls-128{fill:url(#linear-gradient-21);}.cls-129{fill:#079ae1;}.cls-130{fill:#1e5cb3;}.cls-131{fill:#1d60b5;}.cls-132{fill:#175fab;}.cls-133{clip-path:url(#clip-path-123);}.cls-134{clip-path:url(#clip-path-124);}.cls-135{clip-path:url(#clip-path-125);}.cls-136{fill:url(#linear-gradient-22);}.cls-137{mask:url(#mask-8);}.cls-138{clip-path:url(#clip-path-126);}.cls-139{clip-path:url(#clip-path-127);}.cls-140{fill:#7dcbec;}.cls-141{fill:#5ec5ed;}.cls-142{clip-path:url(#clip-path-128);}.cls-143{clip-path:url(#clip-path-129);}.cls-144{clip-path:url(#clip-path-130);}.cls-145{fill:url(#linear-gradient-23);}.cls-146{clip-path:url(#clip-path-131);}.cls-147{clip-path:url(#clip-path-132);}.cls-148{clip-path:url(#clip-path-133);}.cls-149{fill:url(#linear-gradient-24);}.cls-150{mask:url(#mask-9);}.cls-151{clip-path:url(#clip-path-134);}.cls-152{clip-path:url(#clip-path-135);}.cls-153{clip-path:url(#clip-path-136);}.cls-154{clip-path:url(#clip-path-137);}.cls-155{clip-path:url(#clip-path-138);}.cls-156{fill:url(#linear-gradient-25);}</style><clipPath id="clip-path"><rect class="cls-2" x="135.44" y="367.88" width="89.5" height="31.38"/></clipPath><clipPath id="clip-path-2"><polygon class="cls-2" points="134.47 400.26 225.94 400.26 225.94 366.89 134.47 366.89 134.47 400.26 134.47 400.26"/></clipPath><clipPath id="clip-path-3"><rect class="cls-2" x="135.44" y="367.88" width="89.48" height="31.37"/></clipPath><clipPath id="clip-path-6"><polygon class="cls-2" points="135.46 399.25 224.92 399.25 224.92 367.88 135.46 367.88 135.46 399.25 135.46 399.25"/></clipPath><clipPath id="clip-path-7"><rect class="cls-2" x="135.47" y="367.89" width="89.46" height="31.37"/></clipPath><linearGradient id="linear-gradient" x1="180.2" y1="-369.79" x2="180.2" y2="-338.41" gradientTransform="matrix(1, 0, 0, -1, 0, 29.48)" gradientUnits="userSpaceOnUse"><stop offset="0" stop-color="#231f20"/><stop offset="1" stop-color="#fff"/></linearGradient><clipPath id="clip-path-17"><polygon class="cls-2" points="101.32 401.08 190.91 401.08 190.91 324.95 101.32 324.95 101.32 401.08 101.32 401.08"/></clipPath><clipPath id="clip-path-18"><polygon class="cls-2" points="100.44 402.07 191.91 402.07 191.91 323.95 100.44 323.95 100.44 402.07 100.44 402.07"/></clipPath><clipPath id="clip-path-19"><rect class="cls-2" x="101.33" y="324.96" width="89.46" height="76.12"/></clipPath><clipPath id="clip-path-22"><rect class="cls-2" x="101.32" y="324.96" width="89.47" height="76.12"/></clipPath><clipPath id="clip-path-23"><rect class="cls-2" x="101.44" y="324.95" width="89.47" height="76.12"/></clipPath><clipPath id="clip-path-24"><rect class="cls-2" x="101.44" y="324.95" width="89.47" height="76.12"/></clipPath><linearGradient id="linear-gradient-3" x1="146.17" y1="-295.47" x2="146.17" y2="-371.6" gradientTransform="matrix(1, 0, 0, -1, 0, 29.48)" gradientUnits="userSpaceOnUse"><stop offset="0" stop-color="#231f20"/><stop offset="0.46" stop-color="#231f20"/><stop offset="1" stop-color="#fff"/></linearGradient><clipPath id="clip-path-25"><polygon class="cls-2" points="198.94 400.23 288.44 400.23 288.44 345.58 198.94 345.58 198.94 400.23 198.94 400.23"/></clipPath><clipPath id="clip-path-26"><polygon class="cls-2" points="197.94 401.23 289.41 401.23 289.41 344.58 197.94 344.58 197.94 401.23 197.94 401.23"/></clipPath><clipPath id="clip-path-27"><rect class="cls-2" x="198.94" y="345.58" width="89.48" height="54.65"/></clipPath><clipPath id="clip-path-30"><polygon class="cls-2" points="198.96 400.23 288.43 400.23 288.43 345.58 198.96 345.58 198.96 400.23 198.96 400.23"/></clipPath><clipPath id="clip-path-31"><rect class="cls-2" x="198.93" y="345.59" width="89.47" height="54.65"/></clipPath><clipPath id="clip-path-32"><rect class="cls-2" x="198.93" y="345.58" width="89.47" height="54.65"/></clipPath><linearGradient id="linear-gradient-4" x1="243.66" y1="-370.76" x2="243.66" y2="-316.11" gradientTransform="matrix(1, 0, 0, -1, 0, 29.48)" gradientUnits="userSpaceOnUse"><stop offset="0" stop-color="#2e2a2b"/><stop offset="0.73" stop-color="#fff"/><stop offset="1" stop-color="#fff"/></linearGradient><clipPath id="clip-path-33"><rect class="cls-2" x="80.18" y="327.95" width="89.47" height="76.14"/></clipPath><clipPath id="clip-path-34"><rect class="cls-2" x="79.19" y="326.95" width="91.47" height="78.12"/></clipPath><clipPath id="clip-path-35"><rect class="cls-2" x="80.18" y="327.98" width="89.46" height="76.12"/></clipPath><clipPath id="clip-path-38"><polygon class="cls-2" points="169.65 327.98 80.18 327.98 80.18 404.1 169.65 404.1 169.65 327.98 169.65 327.98"/></clipPath><clipPath id="clip-path-39"><rect class="cls-2" x="80.19" y="327.95" width="89.47" height="76.12"/></clipPath><clipPath id="clip-path-40"><rect class="cls-2" x="80.19" y="327.95" width="89.47" height="76.12"/></clipPath><linearGradient id="linear-gradient-5" x1="124.92" y1="-298.47" x2="124.92" y2="-374.59" xlink:href="#linear-gradient"/><clipPath id="clip-path-41"><rect class="cls-2" x="58.6" y="283.44" width="135.63" height="137.4"/></clipPath><clipPath id="clip-path-42"><rect class="cls-2" x="57.6" y="282.44" width="137.63" height="139.4"/></clipPath><clipPath id="clip-path-43"><rect class="cls-2" x="92.52" y="312.4" width="67.7" height="79.73"/></clipPath><clipPath id="clip-path-46"><polygon class="cls-2" points="92.53 330.54 124.94 312.41 160.24 374.01 127.83 392.14 92.54 330.54 92.53 330.54"/></clipPath><clipPath id="clip-path-47"><polygon class="cls-2" points="194.22 373 144.13 283.43 58.6 331.26 108.69 420.83 194.22 373 194.22 373"/></clipPath><clipPath id="clip-path-48"><polygon class="cls-2" points="194.22 373 144.13 283.43 58.6 331.26 108.69 420.83 194.22 373 194.22 373"/></clipPath><linearGradient id="linear-gradient-6" x1="140.67" y1="-348.16" x2="82.46" y2="-244.07" gradientTransform="matrix(1, 0, 0, -1, 0, 29.48)" gradientUnits="userSpaceOnUse"><stop offset="0" stop-color="#231f20"/><stop offset="0.13" stop-color="#fff"/><stop offset="0.4" stop-color="#fff"/><stop offset="1" stop-color="#fff"/></linearGradient><clipPath id="clip-path-49"><rect class="cls-2" x="201.44" y="373.07" width="89.49" height="31.2"/></clipPath><clipPath id="clip-path-50"><polygon class="cls-2" points="200.47 405.26 291.94 405.26 291.94 372.09 200.47 372.09 200.47 405.26 200.47 405.26"/></clipPath><clipPath id="clip-path-51"><rect class="cls-2" x="201.44" y="373.07" width="89.48" height="31.18"/></clipPath><clipPath id="clip-path-54"><polygon class="cls-2" points="201.44 404.24 290.92 404.24 290.92 373.07 201.44 373.07 201.44 404.24 201.44 404.24"/></clipPath><clipPath id="clip-path-55"><rect class="cls-2" x="201.47" y="373.09" width="89.47" height="31.18"/></clipPath><clipPath id="clip-path-56"><polygon class="cls-2" points="290.94 404.26 290.94 373.09 201.47 373.09 201.47 404.26 290.94 404.26 290.94 404.26"/></clipPath><linearGradient id="linear-gradient-7" x1="246.2" y1="-374.79" x2="246.2" y2="-343.61" xlink:href="#linear-gradient"/><clipPath id="clip-path-57"><polygon class="cls-2" points="137.86 399.93 175.85 399.93 175.85 391.17 137.86 391.17 137.86 399.93 137.86 399.93"/></clipPath><clipPath id="clip-path-58"><rect class="cls-2" x="136.86" y="390.17" width="39.98" height="10.75"/></clipPath><clipPath id="clip-path-59"><rect class="cls-2" x="137.87" y="391.17" width="37.98" height="8.75"/></clipPath><clipPath id="clip-path-62"><rect class="cls-2" x="137.87" y="391.17" width="37.98" height="8.75"/></clipPath><clipPath id="clip-path-63"><rect class="cls-2" x="137.86" y="391.17" width="37.98" height="8.75"/></clipPath><clipPath id="clip-path-64"><rect class="cls-2" x="137.86" y="391.17" width="37.98" height="8.75"/></clipPath><linearGradient id="linear-gradient-8" x1="156.85" y1="-361.69" x2="156.85" y2="-370.44" gradientTransform="matrix(1, 0, 0, -1, 0, 29.48)" gradientUnits="userSpaceOnUse"><stop offset="0" stop-color="#fff"/><stop offset="0.36" stop-color="#fff"/><stop offset="1" stop-color="#918f90"/></linearGradient><clipPath id="clip-path-65"><polygon class="cls-2" points="180.84 394.02 270.34 394.02 270.34 344.89 180.84 344.89 180.84 394.02 180.84 394.02"/></clipPath><clipPath id="clip-path-66"><rect class="cls-2" x="179.88" y="343.89" width="91.47" height="51.1"/></clipPath><clipPath id="clip-path-67"><polygon class="cls-2" points="180.84 344.93 270.33 344.93 270.33 394.02 180.84 394.02 180.84 344.93 180.84 344.93"/></clipPath><clipPath id="clip-path-70"><rect class="cls-2" x="180.85" y="344.93" width="89.47" height="49.1"/></clipPath><clipPath id="clip-path-71"><polygon class="cls-2" points="180.88 393.99 270.35 393.99 270.35 344.89 180.88 344.89 180.88 393.98 180.88 393.99"/></clipPath><clipPath id="clip-path-72"><polygon class="cls-2" points="180.88 344.89 180.88 393.98 270.35 393.98 270.35 344.89 180.88 344.89 180.88 344.89"/></clipPath><linearGradient id="linear-gradient-9" x1="225.61" y1="-315.41" x2="225.61" y2="-364.51" xlink:href="#linear-gradient"/><clipPath id="clip-path-73" transform="translate(1.62 1.94)"><path class="cls-2" d="M22.78,6.09C25.14,13.31,26,26.21,33,26.21a8.56,8.56,0,0,0,1.59-.15c-6.28-1.47-7-14.22-10.86-20.83-.31.28-.61.57-.9.86"/></clipPath><clipPath id="clip-path-74" transform="translate(1.62 1.94)"><rect class="cls-2" x="22.76" y="5.24" width="11.76" height="20.98"/></clipPath><clipPath id="clip-path-75" transform="translate(1.62 1.94)"><polygon class="cls-2" points="34.52 5.24 34.52 26.21 22.76 26.21 22.76 5.24 34.52 5.24 34.52 5.24"/></clipPath><linearGradient id="linear-gradient-10" x1="447.78" y1="385.24" x2="447.78" y2="461.62" gradientTransform="translate(-154.8 -156.68) scale(0.41)" gradientUnits="userSpaceOnUse"><stop offset="0" stop-color="#0994dc"/><stop offset="0.11" stop-color="#0994dc"/><stop offset="0.35" stop-color="#66cef5"/><stop offset="0.45" stop-color="#66cef5"/><stop offset="0.85" stop-color="#127bca"/><stop offset="1" stop-color="#127bca"/></linearGradient><clipPath id="clip-path-76" transform="translate(1.62 1.94)"><path class="cls-2" d="M23.68,5.23c3.84,6.61,4.58,19.36,10.86,20.83a10.28,10.28,0,0,0,1.49-.4c-5.64-2.77-7.2-15.15-11.56-21.12-.26.22-.53.45-.79.69"/></clipPath><clipPath id="clip-path-77" transform="translate(1.62 1.94)"><rect class="cls-2" x="23.72" y="4.57" width="12.35" height="21.51"/></clipPath><linearGradient id="linear-gradient-11" x1="450.85" y1="383.37" x2="450.85" y2="461.69" gradientTransform="translate(-154.8 -156.68) scale(0.41)" gradientUnits="userSpaceOnUse"><stop offset="0" stop-color="#0e76bc"/><stop offset="0.18" stop-color="#0e76bc"/><stop offset="0.36" stop-color="#36aee8"/><stop offset="0.52" stop-color="#36aee8"/><stop offset="0.85" stop-color="#00adef"/><stop offset="1" stop-color="#00adef"/></linearGradient><mask id="mask" x="32.06" y="3.26" width="195.49" height="398.95" maskUnits="userSpaceOnUse"><g transform="translate(1.62 1.94)"><g id="P"><g class="cls-1"><g class="cls-3"><g class="cls-4"><g class="cls-1"><g class="cls-4"><g class="cls-5"><g class="cls-6"><g class="cls-6"><path class="cls-7" d="M224.94,367.89H135.47v31.38h89.47Z"/></g></g></g></g></g></g></g></g></g></g></mask><clipPath id="clip-path-79" transform="translate(1.62 1.94)"><polygon class="cls-2" points="30.44 1.31 42.18 1.31 42.18 23.11 30.44 23.11 30.44 1.31 30.44 1.31"/></clipPath><clipPath id="clip-path-80" transform="translate(1.62 1.94)"><rect class="cls-2" x="30.44" y="1.31" width="11.72" height="21.8"/></clipPath><clipPath id="clip-path-81" transform="translate(1.62 1.94)"><path class="cls-2" d="M40.43,23.11l1.74-1.52C39.76,14.4,38.9,1.32,31.94,1.32a7.62,7.62,0,0,0-1.5.14c6.34,1.57,7.15,15.37,10,21.65"/></clipPath><clipPath id="clip-path-82" transform="translate(1.62 1.94)"><polygon class="cls-2" points="30.46 1.31 42.18 1.31 42.18 23.11 30.46 23.11 30.46 1.31 30.46 1.31"/></clipPath><clipPath id="clip-path-83" transform="translate(1.62 1.94)"><rect class="cls-2" x="30.46" y="1.31" width="11.72" height="21.8"/></clipPath><linearGradient id="linear-gradient-12" x1="466.53" y1="444.68" x2="466.53" y2="382.36" gradientTransform="translate(-154.8 -156.68) scale(0.41)" gradientUnits="userSpaceOnUse"><stop offset="0" stop-color="#1c63b7"/><stop offset="0.5" stop-color="#33bdf2"/><stop offset="1" stop-color="#33bdf2"/></linearGradient><mask id="mask-2" x="30.82" y="3.25" width="196.73" height="398.96" maskUnits="userSpaceOnUse"><g transform="translate(1.62 1.94)"><g id="d"><g class="cls-1"><g class="cls-3"><g class="cls-4"><g class="cls-1"><g class="cls-4"><g class="cls-5"><g class="cls-6"><g class="cls-6"><path class="cls-7" d="M224.94,367.89H135.47v31.38h89.47Z"/></g></g></g></g></g></g></g></g></g></g></mask><clipPath id="clip-path-84" transform="translate(1.62 1.94)"><rect class="cls-2" x="29.2" y="1.3" width="2.74" height="0.15"/></clipPath><clipPath id="clip-path-85" transform="translate(1.62 1.94)"><rect class="cls-2" x="29.21" y="1.3" width="2.73" height="0.15"/></clipPath><clipPath id="clip-path-86" transform="translate(1.62 1.94)"><path class="cls-2" d="M28.82,1.91c5.68,3,6.17,16.42,10.7,21.88.31-.21.61-.44.91-.68C37.59,16.83,36.78,3,30.44,1.45a9,9,0,0,0-1.62.46"/></clipPath><clipPath id="clip-path-87" transform="translate(1.62 1.94)"><rect class="cls-2" x="28.85" y="1.48" width="11.61" height="22.34"/></clipPath><linearGradient id="linear-gradient-13" x1="462.47" y1="375.43" x2="462.47" y2="456.75" gradientTransform="translate(-154.8 -156.68) scale(0.41)" gradientUnits="userSpaceOnUse"><stop offset="0" stop-color="#166ab8"/><stop offset="0.1" stop-color="#166ab8"/><stop offset="0.4" stop-color="#36aee8"/><stop offset="0.52" stop-color="#36aee8"/><stop offset="0.85" stop-color="#0798dd"/><stop offset="1" stop-color="#0798dd"/></linearGradient><clipPath id="clip-path-89" transform="translate(1.62 1.94)"><path class="cls-2" d="M24.47,4.54c4.36,6,5.92,18.36,11.56,21.12a14.34,14.34,0,0,0,3.49-1.87C35,18.33,34.5,4.88,28.82,1.91a15.18,15.18,0,0,0-4.34,2.63"/></clipPath><clipPath id="clip-path-90" transform="translate(1.62 1.94)"><rect class="cls-2" x="24.47" y="1.91" width="15.05" height="23.75"/></clipPath><clipPath id="clip-path-91" transform="translate(1.62 1.94)"><rect class="cls-2" x="24.47" y="1.91" width="15.05" height="23.75"/></clipPath><linearGradient id="linear-gradient-14" x1="455.97" y1="375.81" x2="455.97" y2="462.28" gradientTransform="translate(-154.8 -156.68) scale(0.41)" gradientUnits="userSpaceOnUse"><stop offset="0" stop-color="#124379"/><stop offset="0.11" stop-color="#124379"/><stop offset="0.39" stop-color="#1487cb"/><stop offset="0.52" stop-color="#1487cb"/><stop offset="0.78" stop-color="#165197"/><stop offset="1" stop-color="#165197"/></linearGradient><mask id="mask-3" x="19.39" y="6.1" width="174.14" height="397.92" maskUnits="userSpaceOnUse"><g transform="translate(1.62 1.94)"><g id="v"><g class="cls-8"><g class="cls-9"><g class="cls-10"><g class="cls-8"><g class="cls-10"><g class="cls-11"><g class="cls-12"><g class="cls-13"><path class="cls-14" d="M101.44,401.07h89.47V325H101.44Z"/></g></g></g></g></g></g></g></g></g></g></mask><clipPath id="clip-path-92" transform="translate(1.62 1.94)"><rect class="cls-2" x="17.77" y="4.16" width="5.01" height="7.98"/></clipPath><clipPath id="clip-path-93" transform="translate(1.62 1.94)"><rect class="cls-2" x="17.77" y="4.15" width="5" height="7.98"/></clipPath><mask id="mask-4" x="46.78" y="2.68" width="244.25" height="400.49" maskUnits="userSpaceOnUse"><g transform="translate(1.62 1.94)"><g id="AH"><g class="cls-15"><g class="cls-16"><g class="cls-17"><g class="cls-15"><g class="cls-17"><g class="cls-18"><g class="cls-19"><g class="cls-20"><path class="cls-21" d="M288.4,345.59H198.93v54.65H288.4Z"/></g></g></g></g></g></g></g></g></g></g></mask><clipPath id="clip-path-94" transform="translate(1.62 1.94)"><rect class="cls-2" x="45.16" y="0.74" width="20.43" height="25.47"/></clipPath><clipPath id="clip-path-95" transform="translate(1.62 1.94)"><rect class="cls-2" x="45.18" y="0.75" width="20.41" height="25.45"/></clipPath><clipPath id="clip-path-96" transform="translate(1.62 1.94)"><path class="cls-2" d="M62.1.75C58.89,13.14,52.18,23.09,46.55,25.6h0l-.3.13,0,0-.08,0h0l-.14.05-.06,0-.07,0-.07,0-.06,0-.12,0h-.05l-.08,0,0,0-.09,0-.11,0a2,2,0,0,0,.8.14c5.34,0,10.72-9.55,19.61-25.45Z"/></clipPath><clipPath id="clip-path-97" transform="translate(1.62 1.94)"><rect class="cls-2" x="45.16" y="0.74" width="20.41" height="25.45"/></clipPath><linearGradient id="linear-gradient-15" x1="513.03" y1="443.09" x2="513.03" y2="382.38" gradientTransform="translate(-154.8 -156.68) scale(0.41)" gradientUnits="userSpaceOnUse"><stop offset="0" stop-color="#136ab4"/><stop offset="0.32" stop-color="#59caf5"/><stop offset="0.6" stop-color="#59caf5"/><stop offset="1" stop-color="#59caf5"/></linearGradient><mask id="mask-5" x="1.61" y="3.25" width="170.67" height="403.77" maskUnits="userSpaceOnUse"><g transform="translate(1.62 1.94)"><g id="AW"><g class="cls-22"><g class="cls-23"><g class="cls-24"><g class="cls-22"><g class="cls-24"><g class="cls-25"><g class="cls-26"><g class="cls-27"><path class="cls-28" d="M80.19,404.07h89.47V328H80.19Z"/></g></g></g></g></g></g></g></g></g></g></mask><clipPath id="clip-path-99" transform="translate(1.62 1.94)"><polygon class="cls-2" points="-0.01 1.3 18.57 1.3 18.57 26.88 -0.01 26.88 -0.01 1.3 -0.01 1.3"/></clipPath><clipPath id="clip-path-100" transform="translate(1.62 1.94)"><rect class="cls-2" y="1.3" width="18.58" height="25.58"/></clipPath><clipPath id="clip-path-101" transform="translate(1.62 1.94)"><path class="cls-2" d="M4,20.85C9.44,10.29,12,3.61,16.61,1.81c-4.72,1.84-10,8.82-12.65,19"/></clipPath><clipPath id="clip-path-102" transform="translate(1.62 1.94)"><polygon class="cls-2" points="3.95 1.82 16.61 1.82 16.61 20.86 3.95 20.86 3.95 1.82 3.95 1.82"/></clipPath><clipPath id="clip-path-103" transform="translate(1.62 1.94)"><rect class="cls-2" x="3.95" y="1.82" width="12.65" height="19.04"/></clipPath><linearGradient id="linear-gradient-16" x1="402.97" y1="444.68" x2="402.97" y2="382.52" gradientTransform="translate(-154.8 -156.68) scale(0.41)" gradientUnits="userSpaceOnUse"><stop offset="0" stop-color="#318ed5"/><stop offset="0.68" stop-color="#38a7e4"/><stop offset="1" stop-color="#38a7e4"/></linearGradient><mask id="mask-6" x="7.63" y="14.07" width="189.21" height="409.71" maskUnits="userSpaceOnUse"><g transform="translate(1.62 1.94)"><g id="Al"><g class="cls-29"><g class="cls-30"><g class="cls-31"><g class="cls-29"><g class="cls-31"><g class="cls-32"><g class="cls-33"><g class="cls-34"><path class="cls-35" d="M194.22,373l-50.09-89.57L58.6,331.26l50.09,89.58L194.22,373Z"/></g></g></g></g></g></g></g></g></g></g></mask><clipPath id="clip-path-104" transform="translate(1.62 1.94)"><polygon class="cls-2" points="6.01 12.13 17.77 12.13 17.77 26.86 6.01 26.86 6.01 12.13 6.01 12.13"/></clipPath><clipPath id="clip-path-105" transform="translate(1.62 1.94)"><rect class="cls-2" x="6.01" y="12.13" width="11.76" height="14.74"/></clipPath><clipPath id="clip-path-106" transform="translate(1.62 1.94)"><path class="cls-2" d="M6.45,26.83H6.23l-.2,0H6c5.54-.16,8.08-2.93,9.33-7l2.43-7.78a111,111,0,0,0-7,11.53,5.75,5.75,0,0,1-4.32,3.17"/></clipPath><clipPath id="clip-path-107" transform="translate(1.62 1.94)"><rect class="cls-2" x="6.01" y="12.13" width="11.76" height="14.74"/></clipPath><clipPath id="clip-path-108" transform="translate(1.62 1.94)"><rect class="cls-2" x="6.01" y="12.13" width="11.76" height="14.74"/></clipPath><linearGradient id="linear-gradient-17" x1="406.91" y1="444.87" x2="406.91" y2="384.44" gradientTransform="translate(-154.8 -156.68) scale(0.41)" gradientUnits="userSpaceOnUse"><stop offset="0" stop-color="#05a1e6"/><stop offset="1" stop-color="#05a1e6"/></linearGradient><clipPath id="clip-path-109" transform="translate(1.62 1.94)"><path class="cls-2" d="M6.45,26.83h0a5.75,5.75,0,0,0,4.32-3.17,112.1,112.1,0,0,1,7-11.53A64.39,64.39,0,0,1,20,5.91c-4.62,4.4-9.26,11.72-13.54,20.92"/></clipPath><clipPath id="clip-path-110" transform="translate(1.62 1.94)"><rect class="cls-2" x="6.48" y="5.94" width="13.55" height="20.92"/></clipPath><linearGradient id="linear-gradient-18" x1="410.22" y1="448.03" x2="410.22" y2="396.97" gradientTransform="translate(-154.8 -156.68) scale(0.41)" gradientUnits="userSpaceOnUse"><stop offset="0" stop-color="#1959a6"/><stop offset="0.15" stop-color="#1959a6"/><stop offset="0.48" stop-color="#05a1e6"/><stop offset="0.5" stop-color="#05a1e6"/><stop offset="0.92" stop-color="#7ec5ea"/><stop offset="1" stop-color="#7ec5ea"/></linearGradient><clipPath id="clip-path-112" transform="translate(1.62 1.94)"><path class="cls-2" d="M18.39,1.35h0l-.08,0h-.05l-.08,0h0l-.17,0h0l-.09,0h0l-.08,0h0l-.3.07s0,0,0,0l-.09,0h0l-.09,0h0l-.2.07-.1,0,0,0-.08,0,0,0c-4.58,1.8-7.17,8.48-12.65,19a51.16,51.16,0,0,0-1.16,6H6.05l.2,0h.21C10.75,17.63,15.39,10.31,20,5.91a11.74,11.74,0,0,1,1.56-2.7A5,5,0,0,0,20.5,1.89h0l-.06,0-.07,0-.06,0-.07,0-.06,0-.12-.05-.05,0-.09,0h-.05l-.13-.05h0l-.14,0h0l-.12,0h0l-.3-.07h0l-.14,0h0l-.16,0H18.6l-.2,0"/></clipPath><clipPath id="clip-path-113" transform="translate(1.62 1.94)"><polygon class="cls-2" points="3.32 30.08 -1.62 2.1 20.93 -1.88 25.87 26.1 3.32 30.08 3.32 30.08"/></clipPath><clipPath id="clip-path-114" transform="translate(1.62 1.94)"><polygon class="cls-2" points="3.32 30.08 -1.62 2.1 20.93 -1.88 25.86 26.1 3.32 30.08 3.32 30.08"/></clipPath><linearGradient id="linear-gradient-19" x1="412.36" y1="444.61" x2="402.6" y2="389.25" gradientTransform="translate(-154.8 -156.68) scale(0.41)" gradientUnits="userSpaceOnUse"><stop offset="0" stop-color="#165096"/><stop offset="0.1" stop-color="#165096"/><stop offset="1" stop-color="#0d82ca"/></linearGradient><clipPath id="clip-path-115" transform="translate(1.62 1.94)"><path class="cls-2" d="M49.55,7.61,46.9,16.06A91.6,91.6,0,0,0,55.35,1.3c-3.16,1-4.85,3.27-5.8,6.31"/></clipPath><clipPath id="clip-path-116" transform="translate(1.62 1.94)"><rect class="cls-2" x="46.92" y="1.3" width="8.45" height="14.76"/></clipPath><linearGradient id="linear-gradient-20" x1="502.72" y1="413.37" x2="502.72" y2="384.44" gradientTransform="translate(-154.8 -156.68) scale(0.41)" gradientUnits="userSpaceOnUse"><stop offset="0" stop-color="#05a1e6"/><stop offset="0.65" stop-color="#05a1e6"/><stop offset="0.87" stop-color="#0495d6"/><stop offset="1" stop-color="#0495d6"/></linearGradient><mask id="mask-7" x="43.91" y="0" width="249.64" height="407.21" maskUnits="userSpaceOnUse"><g transform="translate(1.62 1.94)"><g id="BJ"><g class="cls-36"><g class="cls-37"><g class="cls-38"><g class="cls-36"><g class="cls-38"><g class="cls-39"><g class="cls-40"><g class="cls-41"><path class="cls-42" d="M290.94,373.09H201.47v31.18h89.47Z"/></g></g></g></g></g></g></g></g></g></g></mask><clipPath id="clip-path-118" transform="translate(1.62 1.94)"><rect class="cls-2" x="42.29" y="-1.94" width="24.05" height="30.16"/></clipPath><clipPath id="clip-path-119" transform="translate(1.62 1.94)"><rect class="cls-2" x="46.55" y="0.75" width="15.55" height="24.84"/></clipPath><clipPath id="clip-path-120" transform="translate(1.62 1.94)"><path class="cls-2" d="M47,25.39l-.44.21C52.18,23.09,58.89,13.14,62.1.75h-.66c-7.38,13.19-9.75,22-14.45,24.64"/></clipPath><clipPath id="clip-path-121" transform="translate(1.62 1.94)"><polygon class="cls-2" points="66.34 1.47 61.62 28.21 42.29 24.81 47.01 -1.94 66.34 1.47 66.34 1.47"/></clipPath><linearGradient id="linear-gradient-21" x1="516.25" y1="381.68" x2="504.49" y2="448.4" gradientTransform="translate(-154.8 -156.68) scale(0.41)" gradientUnits="userSpaceOnUse"><stop offset="0" stop-color="#38a7e4"/><stop offset="0.36" stop-color="#38a7e4"/><stop offset="0.96" stop-color="#0e88d3"/><stop offset="1" stop-color="#0e88d3"/></linearGradient><clipPath id="clip-path-123" transform="translate(1.62 1.94)"><path class="cls-2" d="M59.39.75H56.12l-.52,0-.25.52A91.6,91.6,0,0,1,46.9,16.06c-1.36,4.19-2.36,6.73-3.58,8.22a3.86,3.86,0,0,0,1.85,1.79l.06,0h.05l.09,0,.06,0,.08,0h.05l.12,0,.06,0,.07,0,.07,0,0,0,.14-.05h0l.09,0,0,0,.3-.13h0l.44-.21c4.7-2.63,7.07-11.45,14.45-24.64h-2Z"/></clipPath><clipPath id="clip-path-124" transform="translate(1.62 1.94)"><rect class="cls-2" x="43.31" y="0.75" width="18.13" height="25.32"/></clipPath><clipPath id="clip-path-125" transform="translate(1.62 1.94)"><rect class="cls-2" x="43.31" y="0.76" width="18.13" height="25.32"/></clipPath><linearGradient id="linear-gradient-22" x1="505.72" y1="384.12" x2="505.72" y2="447.24" gradientTransform="translate(-154.8 -156.68) scale(0.41)" gradientUnits="userSpaceOnUse"><stop offset="0" stop-color="#168cd4"/><stop offset="0.5" stop-color="#1c87cc"/><stop offset="1" stop-color="#154b8d"/></linearGradient><mask id="mask-8" x="19.23" y="0.29" width="159.23" height="402.57" maskUnits="userSpaceOnUse"><g transform="translate(1.62 1.94)"><g id="Bb"><g class="cls-43"><g class="cls-44"><g class="cls-45"><g class="cls-43"><g class="cls-45"><g class="cls-46"><g class="cls-47"><g class="cls-48"><path class="cls-49" d="M137.86,399.92h38v-8.75h-38Z"/></g></g></g></g></g></g></g></g></g></g></mask><clipPath id="clip-path-126" transform="translate(1.62 1.94)"><rect class="cls-2" x="17.61" y="-1.65" width="12.32" height="7.44"/></clipPath><clipPath id="clip-path-127" transform="translate(1.62 1.94)"><rect class="cls-2" x="18.01" y="1.3" width="11.2" height="2.41"/></clipPath><clipPath id="clip-path-128" transform="translate(1.62 1.94)"><path class="cls-2" d="M18.58,1.33l.44,0A5.69,5.69,0,0,1,22.38,2.4a6.08,6.08,0,0,1,4-1.1H18a5.44,5.44,0,0,1,.57,0"/></clipPath><clipPath id="clip-path-129" transform="translate(1.62 1.94)"><polygon class="cls-2" points="19.23 -1.65 26.76 1.47 25.14 5.37 17.61 2.25 19.23 -1.65 19.23 -1.65"/></clipPath><clipPath id="clip-path-130" transform="translate(1.62 1.94)"><rect class="cls-2" x="20.08" y="-2.22" width="4.22" height="8.15" transform="translate(11.97 21.64) rotate(-67.47)"/></clipPath><linearGradient id="linear-gradient-23" x1="424.74" y1="383.98" x2="439.28" y2="390.01" gradientTransform="translate(-154.8 -156.68) scale(0.41)" gradientUnits="userSpaceOnUse"><stop offset="0" stop-color="#97d6ee"/><stop offset="0.7" stop-color="#55c1ea"/><stop offset="1" stop-color="#55c1ea"/></linearGradient><clipPath id="clip-path-131" transform="translate(1.62 1.94)"><path class="cls-2" d="M26.38,1.3a6.08,6.08,0,0,0-4,1.1,7.56,7.56,0,0,1,1,.83,12.09,12.09,0,0,1,4.25-1.77,8.77,8.77,0,0,1,1.6-.16Z"/></clipPath><clipPath id="clip-path-132" transform="translate(1.62 1.94)"><rect class="cls-2" x="22.29" y="-0.03" width="7.02" height="4.58" transform="translate(1.37 10.85) rotate(-24.38)"/></clipPath><clipPath id="clip-path-133" transform="translate(1.62 1.94)"><rect class="cls-2" x="22.29" y="-0.03" width="7.02" height="4.58" transform="matrix(0.91, -0.41, 0.41, 0.91, 1.37, 10.85)"/></clipPath><linearGradient id="linear-gradient-24" x1="434.1" y1="391.02" x2="445.59" y2="385.81" gradientTransform="translate(-154.8 -156.68) scale(0.41)" gradientUnits="userSpaceOnUse"><stop offset="0" stop-color="#7accec"/><stop offset="0.34" stop-color="#7accec"/><stop offset="0.84" stop-color="#3fb7ed"/><stop offset="1" stop-color="#3fb7ed"/></linearGradient><mask id="mask-9" x="43.79" y="2.72" width="229.18" height="394.21" maskUnits="userSpaceOnUse"><g transform="translate(1.62 1.94)"><g id="Bt"><g class="cls-50"><g class="cls-51"><g class="cls-52"><g class="cls-50"><g class="cls-52"><g class="cls-53"><g class="cls-54"><g class="cls-55"><path class="cls-56" d="M180.88,394h89.47v-49.1H180.88V394Z"/></g></g></g></g></g></g></g></g></g></g></mask><clipPath id="clip-path-134" transform="translate(1.62 1.94)"><rect class="cls-2" x="42.17" y="0.78" width="13.48" height="20.81"/></clipPath><clipPath id="clip-path-135" transform="translate(1.62 1.94)"><rect class="cls-2" x="42.17" y="0.78" width="13.42" height="20.8"/></clipPath><clipPath id="clip-path-136" transform="translate(1.62 1.94)"><path class="cls-2" d="M46.9,16.06l2.65-8.45c1-3,2.64-5.32,5.8-6.31l.24-.52C50.43,1.09,48,3.72,46.81,7.6c-2.12,6.78-3.4,11.18-4.64,14a40.89,40.89,0,0,0,4.73-5.52"/></clipPath><clipPath id="clip-path-137" transform="translate(1.62 1.94)"><rect class="cls-2" x="42.23" y="0.78" width="13.42" height="20.8"/></clipPath><clipPath id="clip-path-138" transform="translate(1.62 1.94)"><rect class="cls-2" x="42.23" y="0.78" width="13.42" height="20.8"/></clipPath><linearGradient id="linear-gradient-25" x1="497.35" y1="387.59" x2="497.35" y2="449.33" gradientTransform="translate(-154.8 -156.68) scale(0.41)" gradientUnits="userSpaceOnUse"><stop offset="0" stop-color="#1da7e7"/><stop offset="1" stop-color="#37abe7"/></linearGradient></defs><g class="cls-57"><g class="cls-58"><g class="cls-59"><path class="cls-60" d="M34.52,26.22H22.76v-21H34.52Z" transform="translate(1.62 1.94)"/></g></g></g><g class="cls-61"><g class="cls-62"><g class="cls-62"><path class="cls-63" d="M36.07,26.09H23.72V4.57H36.07Z" transform="translate(1.62 1.94)"/></g></g></g><path class="cls-64" d="M29.21,1.3a8,8,0,0,0-1.6.16,12.09,12.09,0,0,0-4.25,1.77,11.09,11.09,0,0,1,1.11,1.31,15.13,15.13,0,0,1,4.35-2.63,10.29,10.29,0,0,1,1.62-.46,5.11,5.11,0,0,0-1.23-.15" transform="translate(1.62 1.94)"/><g class="cls-65"><g class="cls-66"><g class="cls-67"><g class="cls-68"><g class="cls-69"><g class="cls-70"><path class="cls-71" d="M30.46,1.31H42.18v21.8H30.46V1.31Z" transform="translate(1.62 1.94)"/></g></g></g></g></g></g><g class="cls-72"><g class="cls-73"><g class="cls-74"><path class="cls-75" d="M30.44,1.45a4.93,4.93,0,0,0-1.23-.15h2.73a8.46,8.46,0,0,0-1.5.14" transform="translate(1.62 1.94)"/></g></g></g><path class="cls-76" d="M40.31,24.64a10.62,10.62,0,0,1-.78-.85A14.35,14.35,0,0,1,36,25.65a5.33,5.33,0,0,0,2.42.56,7.27,7.27,0,0,0,3.2-.58,6.27,6.27,0,0,1-1.34-1" transform="translate(1.62 1.94)"/><g class="cls-77"><g class="cls-78"><g class="cls-78"><path class="cls-79" d="M40.46,23.82H28.85V1.48H40.46Z" transform="translate(1.62 1.94)"/></g></g></g><g class="cls-80"><g class="cls-81"><g class="cls-82"><path class="cls-83" d="M39.52,25.66H24.47V1.91H39.52Z" transform="translate(1.62 1.94)"/></g></g></g><g class="cls-84"><g class="cls-85"><g class="cls-86"><path class="cls-87" d="M20,5.91a65.39,65.39,0,0,0-2.22,6.22,46.15,46.15,0,0,1,5-6A16.27,16.27,0,0,0,22,4.16,24.41,24.41,0,0,0,20,5.92" transform="translate(1.62 1.94)"/></g></g></g><path class="cls-88" d="M22.65,3.71,22,4.16a16.27,16.27,0,0,1,.74,1.93l.9-.86a12.24,12.24,0,0,0-1-1.52" transform="translate(1.62 1.94)"/><path class="cls-89" d="M23.36,3.23l-.71.48a12.24,12.24,0,0,1,1,1.52l.79-.69a11.09,11.09,0,0,0-1.11-1.31" transform="translate(1.62 1.94)"/><g class="cls-90"><g class="cls-91"><g class="cls-92"><g class="cls-93"><g class="cls-94"><g class="cls-94"><path class="cls-95" d="M45.16.74H65.57V26.19H45.16Z" transform="translate(1.62 1.94)"/></g></g></g></g></g></g><g class="cls-96"><g class="cls-97"><g class="cls-98"><path class="cls-99" d="M16.61,1.81h0l.1,0h0l.09,0,.21-.07h0l.08,0h0l.09,0,0,0,.29-.07h0l.08,0h0l.08,0h0l.18,0h.16l.08,0h0l.2,0L18,1.3C12,1.3,3.72,12.45,0,26.88H.71C1.9,24.75,3,22.74,4,20.85c2.61-10.23,7.93-17.2,12.65-19" transform="translate(1.62 1.94)"/></g></g></g><path class="cls-100" d="M20,5.91A26.21,26.21,0,0,1,22,4.16l-.49-1A11.74,11.74,0,0,0,20,5.91" transform="translate(1.62 1.94)"/><path class="cls-100" d="M20.49,1.89a5.15,5.15,0,0,1,1.06,1.32l.31-.34a6,6,0,0,0-1.45-1l.06,0h0" transform="translate(1.62 1.94)"/><g class="cls-101"><g class="cls-102"><g class="cls-103"><path class="cls-104" d="M4,1.82H16.61v19H4v-19Z" transform="translate(1.62 1.94)"/></g></g></g><path class="cls-105" d="M21.86,2.87l-.31.34c.17.29.33.61.49,1l.61-.45a7.05,7.05,0,0,0-.79-.84" transform="translate(1.62 1.94)"/><g class="cls-106"><g class="cls-107"><g class="cls-108"><g class="cls-109"><g class="cls-110"><g class="cls-111"><path class="cls-112" d="M6,12.13H17.78V26.87H6Z" transform="translate(1.62 1.94)"/></g></g></g></g></g></g><g class="cls-113"><g class="cls-114"><g class="cls-114"><path class="cls-115" d="M6.48,5.94H20V26.86H6.48Z" transform="translate(1.62 1.94)"/></g></g></g><path class="cls-99" d="M4,20.85c-1,1.89-2,3.9-3.24,6H2.81a50.78,50.78,0,0,1,1.15-6" transform="translate(1.62 1.94)"/><g class="cls-116"><g class="cls-117"><g class="cls-118"><path class="cls-119" d="M3.32,30.08l-4.94-28,22.55-4,4.94,28-22.55,4Z" transform="translate(1.62 1.94)"/></g></g></g><g class="cls-120"><g class="cls-121"><g class="cls-121"><path class="cls-122" d="M46.92,1.3h8.45V16.06H46.92Z" transform="translate(1.62 1.94)"/></g></g></g><g class="cls-123"><g class="cls-124"><g class="cls-125"><g class="cls-126"><g class="cls-127"><g class="cls-127"><path class="cls-128" d="M66.34,1.46,61.62,28.22,42.29,24.81,47-1.94l19.33,3.4Z" transform="translate(1.62 1.94)"/></g></g></g></g></g></g><path class="cls-129" d="M43.32,24.28c1.22-1.49,2.22-4,3.58-8.22a40.89,40.89,0,0,1-4.73,5.52v0a15.05,15.05,0,0,0,1.16,2.68" transform="translate(1.62 1.94)"/><path class="cls-76" d="M43.32,24.28A5.09,5.09,0,0,1,42,25.46l-.33.18a5,5,0,0,0,1.72.54h0l.28,0h1l.12,0h0l.14,0h0l.27-.06a3.81,3.81,0,0,1-1.86-1.78" transform="translate(1.62 1.94)"/><path class="cls-130" d="M33,26.21a8.4,8.4,0,0,0,1.59-.15,10.28,10.28,0,0,0,1.49-.4,5.39,5.39,0,0,0,1.3.44,5.75,5.75,0,0,0,1.12.11Z" transform="translate(1.62 1.94)"/><path class="cls-130" d="M38.44,26.21a7.32,7.32,0,0,0,3.21-.57,4.69,4.69,0,0,0,1.71.54h0l.28,0H38.44Z" transform="translate(1.62 1.94)"/><path class="cls-131" d="M44,26.21h.65l.12,0h0l.13,0h0l.27-.06a2,2,0,0,0,.8.14H44Z" transform="translate(1.62 1.94)"/><path class="cls-132" d="M42.17,21.6h0l-1.73,1.52-.91.68.79.85a6,6,0,0,0,1.33,1l.33-.17a5.14,5.14,0,0,0,1.35-1.19,14.74,14.74,0,0,1-1.16-2.68" transform="translate(1.62 1.94)"/><g class="cls-133"><g class="cls-134"><g class="cls-135"><path class="cls-136" d="M61.44,26.07H43.31V.75H61.44Z" transform="translate(1.62 1.94)"/></g></g></g><g class="cls-137"><g class="cls-138"><g class="cls-139"><path class="cls-140" d="M18.58,1.33h.14l.16,0h0l.14,0h0l.3.07h0l.12,0h0l.14,0h0l.13,0,0,0,.09,0H20l.12.05.06,0,.07,0,.06,0,.07,0a6.15,6.15,0,0,1,1.45,1,5.68,5.68,0,0,1,.51-.47A5.65,5.65,0,0,0,19,1.32a3.39,3.39,0,0,0-.45,0" transform="translate(1.62 1.94)"/><path class="cls-141" d="M21.86,2.87a6.26,6.26,0,0,1,.78.84l.72-.48a8.38,8.38,0,0,0-1-.83,3.74,3.74,0,0,0-.51.47" transform="translate(1.62 1.94)"/><g class="cls-142"><g class="cls-143"><g class="cls-144"><path class="cls-145" d="M19.23-1.65l7.53,3.12-1.62,3.9L17.61,2.25l1.62-3.9Z" transform="translate(1.62 1.94)"/></g></g></g><g class="cls-146"><g class="cls-147"><g class="cls-148"><path class="cls-149" d="M21.65,1.62,28-1.28l1.89,4.17-6.39,2.9Z" transform="translate(1.62 1.94)"/></g></g></g></g></g></g><g class="cls-150"><g class="cls-151"><g class="cls-152"><g class="cls-153"><g class="cls-154"><g class="cls-155"><path class="cls-156" d="M55.65,21.58H42.23V.78H55.65Z" transform="translate(1.62 1.94)"/></g></g></g></g></g></g></svg>