<svg id="Layer_1" data-name="Layer 1" xmlns="http://www.w3.org/2000/svg" viewBox="0 0 233.5 239.72"><defs><style>.cls-1{fill:#4285f4;}</style></defs><path class="cls-1" d="M124.34,143.14V110.37H233.93a105.79,105.79,0,0,1,1.75,20.1c0,24.56-6.69,55-28.36,76.59-21.06,21.9-47.92,33.61-83.59,33.61-66,0-121.55-53.77-121.55-119.86S57.71,1,123.73,1c36.58,0,62.53,14.31,82.14,33L182.82,57.08c-14.06-13.15-33-23.41-59-23.41-48.22,0-85.94,38.86-85.94,87.14S75.57,208,123.73,208c31.26,0,49.13-12.55,60.48-24,9.29-9.29,15.38-22.63,17.8-40.8Z" transform="translate(-2.18 -0.95)"/></svg>