<svg id="Layer_1" data-name="Layer 1" xmlns="http://www.w3.org/2000/svg" xmlns:xlink="http://www.w3.org/1999/xlink" viewBox="0 0 403.06 441.16"><defs><style>.cls-1{fill:url(#linear-gradient);}.cls-2{fill:url(#linear-gradient-2);}.cls-3{fill:url(#radial-gradient);}</style><linearGradient id="linear-gradient" x1="-7036.87" y1="-577.51" x2="-6196.17" y2="-1074.26" gradientTransform="translate(345.35 431.41) scale(0.04)" gradientUnits="userSpaceOnUse"><stop offset="0" stop-color="#909ca9"/><stop offset="1" stop-color="#ededee"/></linearGradient><linearGradient id="linear-gradient-2" x1="-7018" y1="-9940" x2="-6341.55" y2="-9940" gradientTransform="translate(345.35 431.41) scale(0.04)" gradientUnits="userSpaceOnUse"><stop offset="0" stop-color="#939fab"/><stop offset="1" stop-color="#dcdee1"/></linearGradient><radialGradient id="radial-gradient" cx="-10220.26" cy="-6875.97" r="898.12" gradientTransform="matrix(-0.04, -0.01, 0.01, -0.07, -88.35, -386.39)" gradientUnits="userSpaceOnUse"><stop offset="0" stop-color="#ee352c"/><stop offset="1" stop-color="#a91d22"/></radialGradient></defs><path class="cls-1" d="M266,217.87,177.6,246.72l-76.86,33.92-21.5,5.68C73.76,291.53,68,296.8,61.81,302.14c-6.82,5.88-13.16,11.22-18,15.1a133.63,133.63,0,0,0-17.5,17.36c-6.08,7.61-10.89,15.69-13,21.9-3.67,11.22-1.86,22.57,5.21,33.06,9.09,13.35,27.18,27,48.28,36.26A306.56,306.56,0,0,0,109.29,440c22.63,5.74,66.44,12,90.55,12.89,4.87.2,11.42.2,11.68,0,.54-.33,4.28-7.48,8.62-16.36,14.82-30.25,25.51-58.63,31.32-82.87,3.47-14.69,6.21-34.26,8-57.43.47-6.48.67-28.18.27-35.53a248.89,248.89,0,0,0-3.34-31.32,7,7,0,0,1-.2-2.74c.26-.2,1.07-.46,11.95-3.6l-2.2-5.21Zm-20.17,11.82c.8,0,2.94,20.5,3.47,33.46a18,18,0,0,1-.06,4.54c-.54,0-11.29-6.35-19-11.16-6.68-4.2-19.36-12.62-21.37-14.22-.67-.47-.6-.53,4.88-2.4C223,236.77,245.05,229.69,245.78,229.69Zm-45,14.82c.6,0,2.14.87,5.81,3.14,13.76,8.62,32.46,19,40.47,22.51,2.47,1.07,2.74.66-2.94,4.54C232,283,216.8,291.13,198.23,299.34c-3.27,1.47-6,2.6-6.07,2.6a17,17,0,0,1,.8-3.67c4.47-16.63,7-33.46,7.15-46.95.06-6.67.06-6.67.66-6.87-.13.06-.06.06,0,.06Zm-9.28,3.54c.4.4.13,15.36-.4,19.44a169.57,169.57,0,0,1-6.14,29,46.09,46.09,0,0,1-1.54,4.68c-.27.33-9.42-8.62-12.42-12.09a90.44,90.44,0,0,1-12.29-17.9c-1.53-3-3.94-8.88-3.74-9.08,1.07-.73,36.26-14.35,36.53-14.09Zm-43.67,17.16a.25.25,0,0,1,.2.07,12.45,12.45,0,0,1,1,2.41,90.51,90.51,0,0,0,11.08,19.83,113.74,113.74,0,0,0,15.43,16.63c1.6,1.33,3.07,2.6,3.27,2.8.4.4.54.33-10.35,4.48-12.62,4.8-26.38,9.61-42.14,14.69q-5.64,1.81-11.28,3.67c-.6.2-.4-.13,1.33-2.87,7.82-12.22,19.7-36.2,26.38-53.16,1.14-2.94,2.27-5.87,2.47-6.54a2.41,2.41,0,0,1,1.47-1.74,6.88,6.88,0,0,1,1.14-.27Zm-13.36,5.55c.2.13-3.2,7.28-6.54,13.82-6.48,12.62-13.56,25-23,40.13-1.6,2.61-3.14,5-3.34,5.28-.33.47-.47.33-1.54-1.74a61,61,0,0,1-5.14-15.49c-1-5.21-.8-14.29.34-19.9.86-4.14.8-4.07,2.8-5.07,8.55-4.34,36.19-17.3,36.46-17Zm115.19,4.67v2.81a363.14,363.14,0,0,1-3.94,50.22c-.4,2.6-.73,4.74-.8,4.8s-1.93-.53-4.2-1.2A172.66,172.66,0,0,1,210,318.91c-6.48-3.54-15.9-9.35-15.63-9.62.07-.07,2.87-1.54,6.14-3.27A392.36,392.36,0,0,0,237,284.58c4.08-2.74,10.22-7.14,11.56-8.35l1.06-.8ZM84,295.2c.27,0,.2.53-.2,2.94-.26,1.73-.6,4.94-.73,7.14-.54,9.75,1.07,17,5.88,26.85a55.26,55.26,0,0,1,2.33,5.07c-.47.4-44.67,13.36-58.56,17.16l-8,2.21c-.46.13-.53.06-.33-1.07,1.54-9.82,9-22.64,19.43-33.46,6.95-7.21,12.49-11.42,22-16.83,6.81-3.87,17.3-9.68,18.1-9.95,0-.06.07-.06.13-.06Zm104.18,18.63a26.16,26.16,0,0,1,3.6,1.94c14.29,8.28,34.19,16,51.16,19.9l1.53.33-2.14,1.2c-8.88,4.94-38.06,17.1-67.91,28.25-4.34,1.6-8.61,3.2-9.42,3.54a5.18,5.18,0,0,1-1.53.47c0-.07,1.2-2.41,2.74-5.28,8.34-15.63,16.76-34.66,21-47.88.54-1.27.87-2.4.94-2.47ZM177.6,317.3a19.41,19.41,0,0,1-1.13,3.07,423.2,423.2,0,0,1-23.18,46.68c-2.47,4.41-4.54,7.95-4.61,7.95s-2.07-1.2-4.47-2.67c-14.16-8.68-26.71-19.37-34.92-29.72l-1.21-1.47,6.08-1.67a435.35,435.35,0,0,0,58.63-20.23C175.4,318.17,177.53,317.3,177.6,317.3Zm66,23h0c.06,1.54-3.34,15.29-6.15,25.24-2.33,8.35-4.34,14.89-8,26.45-1.6,5.07-3,9.28-3.07,9.28a4.61,4.61,0,0,1-.87-.2,279.77,279.77,0,0,1-54.29-15.29c-4.68-1.87-11.35-4.88-11.75-5.21-.14-.14,3.87-2,8.95-4.21,30.38-13.29,61.9-28.38,72.72-34.86a8.76,8.76,0,0,1,2.47-1.2ZM91.26,345.55c.13.13-8.35,12.35-20.24,29-4.14,5.81-8.95,12.62-10.75,15.16s-4.54,6.54-6.08,8.95L51.39,403l-3-2.54A110.87,110.87,0,0,1,36,387.75c-5.74-7.14-9.61-14.69-11.15-21.56-.73-3.21-.73-4.81-.07-5,1-.27,18.83-4.48,35.53-8.35,9.28-2.14,20-4.68,23.91-5.61s7-1.67,7.08-1.67Zm8.54,3.27,2.14,2.41a125.32,125.32,0,0,0,31.32,25.64,16.85,16.85,0,0,1,3.6,2.34c-.46.33-41.26,14.82-60.16,21.37-10.62,3.73-19.37,6.74-19.43,6.74a11,11,0,0,1-1.34-.87l-1.2-.87,1.93-2.8c6.28-9.08,14.16-19,31.32-39.73L99.8,348.82ZM153.09,387c.07-.06,3,1,6.61,2.34A214.83,214.83,0,0,0,184.48,397a274.4,274.4,0,0,0,37.46,6.48c1.47.13,2.27.26,2,.46-.47.27-10.29,3.54-17.5,5.81-11.49,3.61-46.55,14-75.13,22.17-5.27,1.54-9.81,2.81-10.08,2.88-.67.13-2.87-.47-2.87-.74a48.32,48.32,0,0,1,3.54-4.47A399,399,0,0,0,149,393.1c2.2-3.34,4.07-6.08,4.07-6.15Zm-11.75.34c.07.06-4.68,7.68-13,20.76-3.54,5.55-7.48,11.82-8.89,14s-3.34,5.47-4.47,7.34l-1.94,3.41-1-.27c-2.4-.67-19.3-6.61-23.77-8.41A165.66,165.66,0,0,1,72.76,417c-5.34-2.87-12-7.14-11.49-7.28.13-.06,9.28-2.53,20.3-5.54,29.25-7.95,45.48-12.55,56.1-15.89a26,26,0,0,1,3.67-1Zm83.14,19.5h.07c.26.66-10.55,30.71-14.5,40.2-.86,2.13-1.2,2.67-1.66,2.6-1.14-.07-16.83-2.27-26.38-3.67-16.63-2.54-44.54-7.42-51.55-9l-1.61-.33,10-2.27c21.37-4.81,31.65-7.41,42.07-10.62a297.76,297.76,0,0,0,39.33-15.16,33.55,33.55,0,0,1,4.28-1.74Z" transform="translate(-11.47 -11.92)"/><path class="cls-2" d="M174.86,11.92c-1.47-.2-25.17,8.35-40.47,14.56C113.76,34.9,97.73,42.91,87.85,49.85c-3.67,2.61-8.28,7.22-9,9a6.19,6.19,0,0,0-.41,2.27l8.95,8.48,21.31,6.81,50.68,9.08,58,9.95.61-5c-.2,0-.34-.06-.54-.06l-7.61-1.2-1.54-2.74c-7.88-13.89-16.56-31.12-21.63-42.74a220.94,220.94,0,0,1-9.75-26.91c-1.14-4.54-1.27-4.81-2-4.88Zm-1.07,3.41h.07c.07.06.33,1.94.6,4.14a140,140,0,0,0,6.48,28.11c2.47,7.35,2.47,7-.4,6.08-6.81-1.87-37.33-7.15-59.43-10.22-3.54-.46-6.55-.93-6.55-1-.27-.27,16-8.75,23.11-12.09C146.82,26.15,171.92,15.66,173.79,15.33ZM109.42,45.25l2.6.86c14.16,4.81,49.75,11.62,69.39,13.23,2.2.2,4.07.4,4.14.4a32.4,32.4,0,0,1-4.21,2.2c-9.48,4.74-19.9,10.55-27.11,15a28.46,28.46,0,0,1-4.34,2.4c-.27,0-1.67-.27-3.14-.47l-2.67-.4L137.4,72c-11.75-11.42-21-20.24-24.51-23.58Zm-2.67,2.07,9.41,11.75c5.15,6.48,10.35,12.82,11.49,14.22a19.86,19.86,0,0,1,2,2.61c-.26.2-13.62-2.41-20.7-4-7.28-1.67-10.28-2.47-14.76-3.87l-3.67-1.2v-.94c.07-4.47,5.74-11.15,15.36-18Zm80,16c.27,0,.6.6,1.4,2.41,2.27,5,9.35,18.49,11.09,21.1.53.87,1.47.93-8-.6-22.64-3.68-29.92-4.88-29.92-5a6.94,6.94,0,0,1,1.54-1,130.81,130.81,0,0,0,20.37-14.09c1.53-1.27,2.94-2.47,3.2-2.67C186.55,63.34,186.68,63.28,186.75,63.34Z" transform="translate(-11.47 -11.92)"/><path class="cls-3" d="M79.3,57.93a6.63,6.63,0,0,0-.06,5.81c.86,2.14,3.4,4.74,6.27,7.42,0,0,29.72,29,33.33,33.12,16.42,19,23.57,37.66,24.24,63.44.4,16.56-2.74,31.12-10.56,48-13.89,30.32-43.2,63.78-88.41,100.91l6.61-2.21c4.27-3.2,10.08-6.61,23.71-14.09,31.45-17.23,66.84-33.06,110.25-49.35,62.5-23.51,165.28-51,223.77-60l6.08-.93-.93-1.47a207.84,207.84,0,0,0-13.43-18.9c-12.82-15.89-28.38-28.78-47.41-39.47-26.18-14.62-60-26-102.91-34.52-8.08-1.6-25.84-4.67-40.26-6.88-30.59-4.74-50.35-8-72.12-11.75-7.82-1.34-19.5-3.34-27.25-5a173,173,0,0,1-17.7-4.74c-4.8-1.87-11.75-3.74-13.22-9.42Zm17.23,16.7a17.17,17.17,0,0,1,2.54.8c2.54.87,5.81,1.87,9.68,2.94q4.4,1.2,8.82,2.34c4,1,7.34,1.93,7.41,1.93.47.47,7.21,22,9.48,30.32.87,3.14,1.54,5.81,1.47,5.81a13.47,13.47,0,0,1-1.67-2.61c-7.81-13.75-20.17-27.71-34.46-38.93A28.71,28.71,0,0,1,96.53,74.63Zm32.86,9.08a26.26,26.26,0,0,1,3.6.6c11.35,2.54,31.72,6.41,44.74,8.62a16.43,16.43,0,0,1,3.94.86,6.66,6.66,0,0,1-1.8,1.14c-2.2,1.13-11.08,6.41-14,8.41A128.08,128.08,0,0,0,147,118.43c-1.94,1.94-3.61,3.54-3.61,3.54s-.4-1.13-.73-2.53a215.29,215.29,0,0,0-12-32.73,27.92,27.92,0,0,1-1.33-3.07c0,.14,0,.07.07.07Zm57.83,11c.4.13,1.06,2.4,2.4,7.41a109.39,109.39,0,0,1,3.21,30.59,56.58,56.58,0,0,1-.41,5.74l-.2.67L188.75,138c-7.14-2.27-18.76-5.68-28.71-8.48-5.68-1.54-10.29-2.94-10.29-3.07,0-.4,8.29-8.68,11.82-11.82,6.75-5.95,25.05-20.1,25.65-19.9Zm4.6.67c.2-.2,27.65,4.54,40.14,6.94,9.28,1.8,22.77,4.61,23.57,4.94.4.14-1,.94-5.48,2.94-17.62,8-30.71,15.09-43.73,23.77-3.41,2.27-6.28,4.14-6.35,4.14a38.6,38.6,0,0,1-.13-4.27,93.38,93.38,0,0,0-7.21-36.33A11,11,0,0,1,191.82,95.4Zm71,14c.2.2-.67,5.61-1.47,8.81-2.4,10-8.88,24.71-16.83,38.6a44,44,0,0,1-2.8,4.54,27.25,27.25,0,0,1-4-2.13,217.35,217.35,0,0,0-26.18-12.83c-2.67-1.13-5-2.07-5.07-2.2-.47-.4,21-14.62,32.39-21.43C247.85,117.3,262.54,109.15,262.81,109.42Zm5.07.8c.61,0,12.76,3.34,19.1,5.21a392.87,392.87,0,0,1,45.48,16.63l4.87,2.2-3.4.8c-28.72,6.61-53.29,14.23-77,23.84-1.93.8-3.67,1.47-3.8,1.47a16.59,16.59,0,0,1,1.4-3.4c7.14-15.16,11.75-31,12.89-44.48.06-1.27.26-2.27.46-2.27ZM146.88,138c.2-.2,9.48,2,14.49,3.41,7.62,2.13,23.78,7.54,23.78,7.94,0,.07-1.81,1.61-3.94,3.48-8.75,7.28-17.17,14.95-27.25,24.7-3,2.88-5.54,5.21-5.67,5.21s-.2-.4-.14-.93c1.54-11.22,1.2-25.65-.93-40.27C147,139.67,146.82,138.07,146.88,138Zm195.06.2c.14.13-4.27,7.08-7.08,11-4,5.74-9.88,13.36-23.17,30.05-7,8.81-14.89,18.77-17.49,22.1s-4.88,6.15-4.95,6.15a24.48,24.48,0,0,1-1.87-2.67,137.8,137.8,0,0,0-27-29.85c-2-1.67-4.21-3.48-4.94-4a6.94,6.94,0,0,1-1.34-1.14c0-.2,11.35-5.07,20-8.54,15.09-6.15,35.66-13.49,51.08-18.23,8.08-2.54,16.7-5,16.83-4.88Zm5.14,1.34a15,15,0,0,1,3.81,1.87,226.39,226.39,0,0,1,44.68,33.52c3.54,3.47,12.28,12.55,12.15,12.62s-3.07.27-6.68.53c-28.11,2.14-64.1,8.08-98.7,16.43-2.33.54-4.4,1-4.54,1s2.47-2.6,5.75-5.74c20.3-19.56,29.58-31.92,40.53-54,1.54-3.27,2.87-6.07,3-6.27ZM198.37,154.76c.93.2,9.61,4.28,16.16,7.55,6,3,15,7.81,15.49,8.21.07.07-3.14,1.74-7.08,3.67-12.55,6.28-23.3,12.22-34.52,19-3.21,1.93-5.88,3.54-5.94,3.54-.27,0-.21-.27,1.6-3.54a139.1,139.1,0,0,0,13.55-36.8c.27-1,.54-1.67.74-1.67Zm-8.68,1.61c.2.2-2.07,8.41-3.47,12.88a165.17,165.17,0,0,1-11.82,27.12c-1.07,1.86-2.68,4.6-3.54,6.14l-1.67,2.67-3.74-3.61A49.29,49.29,0,0,0,153,192.42a18,18,0,0,1-3.21-1.86c0-.54,11.42-10.89,20.17-18.37,6.27-5.41,19.5-16,19.7-15.82Zm53.09,21.83,3.27,2.14a252.32,252.32,0,0,1,23,17c3.8,3.13,11.15,9.75,12.62,11.35l.8.87-5.41,1.53c-30.58,8.48-54.22,16-81.8,26.18-3.08,1.14-5.68,2.07-5.88,2.07-.4,0-.74.33,6.14-6,17.63-16.23,33.26-34.12,44.88-51.55l2.34-3.61Zm-14,3.47c.13.14-9,13-14.49,20.3-6.55,8.69-18.17,23.24-26.18,32.73-3.34,3.94-6.21,7.21-6.34,7.28s-.27-.94-.27-2.48a55.94,55.94,0,0,0-5.68-24c-1.53-3.07-1.8-3.8-1.46-4.14,1.26-1.13,20.7-12.22,33-18.83,8.28-4.41,21.24-11,21.44-10.82Zm-84.41,20.71a29.54,29.54,0,0,1,3.47,1.73,73.2,73.2,0,0,1,11.49,7.75c.13.13-1.6,1.53-3.87,3.2-6.35,4.54-16,11.82-21.57,16.3-5.88,4.67-6.08,4.81-5.41,3.8a123,123,0,0,0,8.95-15.42,124,124,0,0,0,5.61-14,11.38,11.38,0,0,1,1.33-3.4ZM166.92,220c.33-.07.73.53,2.53,3.2a48.08,48.08,0,0,1,7.48,19.43l.14,1.34-9.15,3.54c-16.36,6.34-31.45,12.62-41.67,17.29-2.87,1.34-7.88,3.74-11.15,5.35s-5.95,2.93-5.95,2.87,2.07-1.6,4.61-3.47c20-14.5,37.26-30.39,50.22-46.28,1.4-1.67,2.67-3.21,2.8-3.27Zm-10.35,2.53c.26.27-7.35,8.88-12.56,14.16a221.42,221.42,0,0,1-41.47,33.46l-4,2.53c-.46.27.14-.4,7.08-7.94,4.41-4.74,7.75-8.75,11.56-13.69a22.58,22.58,0,0,1,6.67-6.35C133.66,237.63,156.3,222.28,156.57,222.54Z" transform="translate(-11.47 -11.92)"/></svg>