<?xml version="1.0" encoding="utf-8"?>
<!-- Generator: Adobe Illustrator 25.0.0, SVG Export Plug-In . SVG Version: 6.00 Build 0)  -->
<svg version="1.1" id="Layer_1" xmlns="http://www.w3.org/2000/svg" xmlns:xlink="http://www.w3.org/1999/xlink" x="0px" y="0px"
	 viewBox="0 0 200 200" style="enable-background:new 0 0 200 200;" xml:space="preserve">
<style type="text/css">
	.st0{fill:#4FA3D4;}
</style>
<g>
	<path class="st0" d="M20.5,136c-2.3-0.8-3.9-2.4-5.1-4.7c-0.5-1-0.5-1.5-0.6-11.2c-0.1-9.7-0.1-10.2-0.7-11.2
		c-0.7-1.6-2.3-3.2-3.8-3.9c-1.1-0.6-1.8-0.7-4.5-0.8L2.8,104v-8l3.1-0.2c2.7-0.1,3.3-0.3,4.5-0.8c1.6-0.8,3.1-2.3,3.8-3.9
		c0.5-1.1,0.5-1.5,0.7-11.2l0.1-10.1l0.7-1.4c0.9-1.8,2.3-3.2,4-4c1.4-0.7,1.4-0.7,6.5-0.7h5.1v8l-4,0.1l-4,0.1l-0.1,11.3L23,94.5
		l-0.7,1.3c-0.9,1.6-2.5,3-3.9,3.6c-0.6,0.2-1.1,0.5-1.1,0.6c0,0.1,0.5,0.4,1.1,0.6c1.5,0.6,3.1,2,3.9,3.6l0.7,1.3l0.1,11.3
		l0.1,11.3l4,0.1l4,0.1v8l-4.7,0C22.5,136.4,21.5,136.4,20.5,136L20.5,136z M168.8,136.2c-0.1-0.2-0.1-2-0.1-4.1l0.1-3.8l4-0.1
		l4-0.1l0.1-11.3l0.1-11.3l0.7-1.3c0.9-1.6,2.5-3,3.9-3.6c0.6-0.2,1.1-0.5,1.1-0.6c0-0.1-0.5-0.4-1.1-0.6c-1.5-0.6-3.1-2-3.9-3.6
		l-0.7-1.3l-0.1-11.3l-0.1-11.3l-4-0.1l-4-0.1v-8h5.1c5.1,0,5.1,0,6.5,0.7c1.8,0.9,3.2,2.3,4,4l0.7,1.4l0.1,10.1
		c0.1,9.7,0.1,10.2,0.7,11.2c0.7,1.6,2.3,3.2,3.8,3.9c1.2,0.6,1.8,0.7,4.5,0.8l3.1,0.2v8l-3.1,0.2c-2.7,0.1-3.3,0.3-4.5,0.8
		c-1.6,0.8-3.1,2.3-3.8,3.9c-0.5,1.1-0.5,1.5-0.7,11.2l-0.1,10.1l-0.7,1.4c-0.9,1.8-2.3,3.2-4,4c-1.4,0.7-1.5,0.7-6.5,0.8
		C169.8,136.5,168.9,136.4,168.8,136.2L168.8,136.2z M77.4,110.9c-2.1-0.8-2.7-1.1-3.5-1.9c-1-0.9-2.1-3-2.1-4c0-0.6,0-0.6,1.9-0.6
		h1.9l0.3,1.1c0.7,2.4,4,3.5,6.5,2.3c1.2-0.6,1.7-1.4,1.7-2.7c-0.1-1.6-1-2.3-4.7-3.6c-4.5-1.6-6.4-3.2-6.7-5.9
		c-0.2-2,0.2-3.3,1.6-4.6c1.7-1.6,3.4-2.2,6.2-2.1c1.2,0,2.4,0.1,2.6,0.2c0.2,0.1,0.8,0.3,1.2,0.6c2,0.9,3.7,3.2,3.6,5l-0.1,0.9
		l-1.6,0c-1.9,0-2.1-0.1-2.1-1c0-1.3-2-2.7-3.7-2.7c-1.1,0-2.5,0.5-3.1,1.1c-0.3,0.3-0.6,1-0.7,1.5c-0.2,1.4,0.5,2.5,2.2,3.2
		c0.7,0.3,1.5,0.7,1.7,0.8c0.2,0.1,0.6,0.2,0.8,0.2s0.6,0.1,0.8,0.2c0.2,0.1,1,0.5,1.8,0.8c1.7,0.7,2.8,1.7,3.6,2.9
		c0.8,1.3,0.9,4.3,0,5.6c-0.8,1.3-2.2,2.3-3.7,2.8C82.1,111.2,78.4,111.2,77.4,110.9L77.4,110.9z M37,110.5V99.9l0-10.5l5,0
		c5.1,0,5.3,0,7.4,1c1.9,0.9,2.9,2.8,2.9,5.4c0,2.3-1.1,4.2-3.1,5.5c-0.6,0.3-0.8,0.6-0.6,0.8c0.2,0.3,1.3,2.2,3.1,5.6
		c0.6,1.2,1.2,2.3,1.4,2.4c0.5,0.5,0.1,0.6-1.9,0.6H49l-2.1-4.1l-2.1-4.1h-4.1l0,4l0,4l-1.8,0.1C37.8,110.7,37,110.6,37,110.5z
		 M46.6,99c1.8-0.9,2.4-3.5,1.3-5.1c-0.9-1.3-2-1.7-4.7-1.6l-2.4,0.1l-0.1,3.3c0,1.8,0,3.4,0.1,3.6C40.9,99.6,45.5,99.5,46.6,99z
		 M55.9,110.5V99.9l0-10.5h14V92l-5.1,0.1l-5.1,0.1v5.6l4.5,0.1l4.4,0v2.9l-4.4,0l-4.5,0.1v6.6l5.2,0.1l5.2,0v2.9H63
		C59.1,110.7,55.9,110.6,55.9,110.5z M96.1,101.5L96,92.3l-3.3-0.1l-3.4-0.1v-2.9h17.3v2.9H100v18.5h-3.9L96.1,101.5z M113.4,110.5
		c0-0.1,0.6-1.7,1-2.7c0.1-0.3,0.7-1.7,1.2-3.2c0.6-1.5,1.1-2.9,1.2-3.2c0.1-0.3,0.4-1.1,0.7-1.9c0.3-0.8,0.6-1.7,0.7-1.9
		c0.1-0.3,0.4-1.1,0.7-1.9c0.3-0.8,0.6-1.7,0.7-1.9c0.1-0.3,0.4-1.1,0.7-1.9c1-2.7,0.9-2.6,2.8-2.5c1.2,0,1.8,0.2,1.9,0.4
		c0.3,0.5,0.6,1.4,1.2,3c0.3,0.8,0.6,1.7,0.7,1.9c0.1,0.3,0.4,1.1,0.7,1.9c0.3,0.8,0.6,1.7,0.8,2c0.1,0.3,0.3,0.8,0.4,1.1
		c0.1,0.3,0.3,0.8,0.5,1.1c0.1,0.3,0.5,1.3,0.8,2.1c0.3,0.8,0.6,1.7,0.7,1.9c0.1,0.3,0.4,1.1,0.7,1.9c0.6,1.7,0.9,2.5,1.2,3.1
		c0.1,0.2,0.2,0.5,0.2,0.6s-0.9,0.1-2.1,0.1l-2.1-0.1l-0.5-1.3c-0.2-0.7-0.6-1.8-0.9-2.4l-0.4-1h-8l-0.3,0.7
		c-0.2,0.4-0.5,1.1-0.7,1.8s-0.4,1.2-0.5,1.3c-0.1,0.1-0.2,0.4-0.2,0.7c0,0.4-0.2,0.4-2.1,0.4C114.3,110.7,113.4,110.6,113.4,110.5z
		 M126,102.7c0-0.3-2.8-8.3-2.9-8.3c-0.1,0-0.6,1.5-1.2,3.4c-0.6,1.8-1.2,3.5-1.3,3.6c-0.2,0.2-0.3,1-0.2,1.4
		C120.4,102.9,126,102.9,126,102.7L126,102.7z M135.3,110.5V99.9l0-10.5l5.2,0c3.6,0,5.5,0,6.1,0.2c1.6,0.5,3,1.7,3.9,2.9
		c0.8,1.2,0.8,1.4,0.8,3.6c0,2.1-0.1,2.4-0.7,3.5c-0.4,0.6-1,1.4-1.5,1.8c-1.6,1.2-2.5,1.4-6.4,1.6l-3.7,0.1l0,3.8l0,3.8l-1.9,0.1
		C136.1,110.7,135.3,110.6,135.3,110.5L135.3,110.5z M145.1,99.7c0.3-0.1,0.7-0.3,0.9-0.4c0.9-0.4,1.4-1.5,1.4-3.1
		c0-2-0.4-2.7-2-3.5c-0.9-0.4-1.5-0.5-3.7-0.4l-2.6,0.1l-0.1,3.5c0,1.9,0,3.7,0,3.8C139.2,100,144.3,100.1,145.1,99.7z M155,110.5
		V89.4l1.9-0.1l1.9-0.1v21.4H157C155.9,110.7,155,110.6,155,110.5z M104.4,101.4v-1.5h7.8v2.9h-7.8V101.4z"/>
</g>
</svg>
