<svg id="Layer_1" data-name="Layer 1" xmlns="http://www.w3.org/2000/svg" viewBox="0 0 566.33 438.54"><defs><style>.cls-1{fill:#fff;}</style></defs><path class="cls-1" d="M410.19,356.12c1.6.1,3.33.3,5.05.3,24.43,0,48.88-.12,73.3.13,5.35.05,6.95-1.78,6.68-6.9-.35-6.68-.08-13.38-.08-21.63,27.73,20.4,54.53,40.1,82,60.35l-82,60.4V428.15c0-8.3,0-8.33-8.07-8.33H18.52c-7.55,0-7.55,0-7.55-7.6,0-16.47.22-33-.13-49.4-.12-5.35,1.6-6.55,6.73-6.52q126,.22,251.92.05c43.05-.13,77-18,99.5-55.05,40.55-67-1.72-154.75-79.42-166-60-8.73-115.78,31.55-125.95,92.57-1.08,6.35-1.15,12.88-1.78,20.53,9.83-1.33,18.73-2.55,28.8-3.9-15.77,30.5-31,59.95-46.45,89.8l-69.8-71.93c5.73-.95,13.33-2.05,20.85-3.62,1.43-.3,3.53-2.6,3.48-3.93a212.14,212.14,0,0,1,3.8-47.45,6.89,6.89,0,0,0-.28-1.95,104.15,104.15,0,0,1-42.22-17C28.67,166.72,12.27,126.35,20,89.55c8.37-40.1,38.62-70.08,77.72-77.48,25.35-4.77,48.85-.22,70.68,13.18,3.85,2.37,6.2,2.72,8.72-1.4,1.48-2.43,3.7-4.38,6.25-7.33,3.18,12.8,6.15,24.78,9.1,36.75,1,4,1.78,8.13,2.95,12.1,1.28,4.3,0,6.23-4.57,5.93-13.15-.9-26.33-1.7-39.48-2.58-3.25-.22-6.47-.57-10.65-1,3.25-4.1,6.2-7.78,9.43-11.8-7.1-5.4-14.93-8.1-23.08-9.43a62.77,62.77,0,0,0-73.32,63.7c.6,30.6,26.4,57.95,56.87,60.55,4,.33,5.33-1.67,6.85-4.62,21.6-41.45,54.13-70.75,98.38-86,102.37-35.3,209.25,27.95,229,131.47,9.73,51-1.35,97.53-32.27,139.25-.85,1.15-1.63,2.38-2.38,3.6-.15.23.05.68.18,1.63Z" transform="translate(-10.83 -10.23)"/></svg>