<?xml version="1.0" encoding="utf-8"?>
<!-- Generator: Adobe Illustrator 24.2.1, SVG Export Plug-In . SVG Version: 6.00 Build 0)  -->
<svg version="1.1" id="Ebene_1" xmlns="http://www.w3.org/2000/svg" xmlns:xlink="http://www.w3.org/1999/xlink" x="0px" y="0px"
	 viewBox="0 0 421 372" style="enable-background:new 0 0 421 372;" xml:space="preserve">
<style type="text/css">
	.st0{opacity:0.23;fill:url(#rect3723_1_);enable-background:new    ;}
	.st1{opacity:0.23;fill:url(#path3725_1_);enable-background:new    ;}
	.st2{opacity:0.23;fill:url(#path3727_1_);enable-background:new    ;}
	.st3{fill:#729FCF;stroke:#2E3436;stroke-width:17.49;stroke-linecap:round;stroke-linejoin:round;}
	.st4{fill-rule:evenodd;clip-rule:evenodd;fill:#FFFFFF;}
	.st5{fill:#FFFFFF;}
	.st6{fill:#729FCF;stroke:#729FCF;stroke-width:2.1;stroke-linejoin:round;}
	.st7{fill:#888A85;stroke:#888A85;stroke-width:2.1;stroke-linejoin:round;}
	.st8{fill:url(#path5417_1_);stroke:#D3D7CF;stroke-width:17.49;stroke-linecap:round;stroke-miterlimit:3.58;}
</style>
<g id="g9502">
	<g id="g7476">
		
			<linearGradient id="rect3723_1_" gradientUnits="userSpaceOnUse" x1="314.6" y1="150.5429" x2="314.6" y2="393.4029" gradientTransform="matrix(0.65 0 0 0.28 6.53 290.16)">
			<stop  offset="0" style="stop-color:#000000;stop-opacity:0"/>
			<stop  offset="0.5" style="stop-color:#000000"/>
			<stop  offset="1" style="stop-color:#000000;stop-opacity:0"/>
		</linearGradient>
		<rect id="rect3723" x="55.3" y="332" class="st0" width="311.4" height="68.2"/>
		
			<radialGradient id="path3725_1_" cx="561.47" cy="270.5429" r="117.14" gradientTransform="matrix(0.65 0 0 0.28 6.66 290.16)" gradientUnits="userSpaceOnUse">
			<stop  offset="0" style="stop-color:#000000"/>
			<stop  offset="1" style="stop-color:#000000;stop-opacity:0"/>
		</radialGradient>
		<path id="path3725" class="st1" d="M366.8,332v68.2C400,400.3,447,384.9,447,366S410,332,366.8,332z"/>
		
			<radialGradient id="path3727_1_" cx="493.56" cy="270.5429" r="117.14" gradientTransform="matrix(-0.65 0 0 0.28 371.39 290.16)" gradientUnits="userSpaceOnUse">
			<stop  offset="0" style="stop-color:#000000"/>
			<stop  offset="1" style="stop-color:#000000;stop-opacity:0"/>
		</radialGradient>
		<path id="path3727" class="st2" d="M55.3,332v68.2C22.1,400.3-25,384.9-25,366S12.1,332,55.3,332z"/>
	</g>
	<g id="g5592">
		<path id="rect5414" class="st3" d="M14.3,11.9h393.2v349.1H14.3V11.9z"/>
		<g id="g5457">
			<path id="path5441" class="st4" d="M382.3,34.2c-122.8,27.5-245.4,53-348.1,97.3l1.9,62.7c6.5,6.5,260.3-47.1,274.5-10.9
				S42.7,270.6,36.8,267.1l1.9,23c123.6-24.1,244.4-50.5,346.2-91.5l1.3-73.6c-98.9,8.4-276.4,34.6-257.9,10.3S219,86.9,386.1,57.2
				L382.3,34.2z"/>
			<g id="g5451">
				<path id="path5443" class="st5" d="M57.3,215.3c0,2.8-2.3,5.1-5.1,5.1c-2.8,0-5.1-2.3-5.1-5.1c0-2.8,2.3-5.1,5.1-5.1
					c0,0,0,0,0,0C55,210.2,57.3,212.4,57.3,215.3C57.3,215.3,57.3,215.3,57.3,215.3z"/>
				<path id="path5445" class="st5" d="M71.6,215.3c0,2.8-2.3,5.1-5.1,5.1s-5.1-2.3-5.1-5.1c0-2.8,2.3-5.1,5.1-5.1c0,0,0,0,0,0
					C69.3,210.2,71.6,212.5,71.6,215.3C71.6,215.3,71.6,215.3,71.6,215.3z"/>
				<path id="path5447" class="st5" d="M57.3,238.6c0,2.8-2.3,5.1-5.1,5.1c-2.8,0-5.1-2.3-5.1-5.1c0-2.8,2.3-5.1,5.1-5.1
					c0,0,0,0,0,0C55,233.5,57.3,235.8,57.3,238.6z"/>
				<path id="path5449" class="st5" d="M71.6,238.6c0,2.8-2.3,5.1-5.1,5.1s-5.1-2.3-5.1-5.1c0-2.8,2.3-5.1,5.1-5.1c0,0,0,0,0,0
					C69.3,233.5,71.6,235.8,71.6,238.6z"/>
			</g>
		</g>
		<rect id="rect5465" x="35.5" y="288.9" class="st5" width="350" height="42.9"/>
		<g id="g5572">
			<path id="flowRoot5476" class="st6" d="M63.9,298.6v3.3c-1.3-0.6-2.7-1-4.2-1.3c-1.2-0.3-2.5-0.4-3.8-0.5
				c-1.7-0.1-3.4,0.3-4.9,1.1c-1.1,0.6-1.7,1.8-1.7,3.1c-0.1,1,0.4,1.9,1.1,2.5c1.3,0.8,2.8,1.2,4.3,1.4l2.3,0.4
				c2.3,0.2,4.5,1.1,6.4,2.6c1.4,1.2,2.1,3,2.1,4.9c0.1,2.2-1,4.3-2.8,5.5c-1.9,1.3-4.6,1.9-8.2,1.9c-1.5,0-2.9-0.1-4.3-0.4
				c-1.6-0.3-3.2-0.7-4.7-1.2v-3.5c1.5,0.7,3,1.3,4.6,1.8c1.5,0.4,3,0.6,4.5,0.6c1.8,0.1,3.6-0.3,5.1-1.1c1.2-0.7,1.9-1.9,1.8-3.3
				c0.1-1.1-0.4-2.2-1.3-2.9c-1.3-0.9-2.7-1.4-4.2-1.6l-2.4-0.4c-2.3-0.3-4.4-1.1-6.3-2.4c-1.3-1.1-2-2.8-1.9-4.5
				c-0.1-2.1,0.9-4.1,2.7-5.2c2.2-1.4,4.8-2.1,7.4-1.9c1.4,0,2.8,0.1,4.1,0.3C61.1,297.9,62.5,298.2,63.9,298.6"/>
			<path id="flowRoot5484" class="st6" d="M80.4,297.8h4v15.5c0,2.7,0.6,4.7,1.7,5.9s3,1.8,5.5,1.8s4.4-0.6,5.5-1.8s1.7-3.2,1.7-5.9
				v-15.5h4v15.9c0,3.3-0.9,5.8-2.8,7.5c-1.9,1.7-4.7,2.5-8.3,2.5s-6.5-0.9-8.4-2.5s-2.8-4.2-2.8-7.5L80.4,297.8"/>
			<path id="flowRoot5492" class="st6" d="M122.1,311.1v9.5h6.4c1.7,0.1,3.4-0.3,4.8-1.2c1.1-0.9,1.7-2.2,1.6-3.6
				c0.1-1.4-0.5-2.7-1.6-3.6c-1.4-0.9-3.1-1.3-4.8-1.2L122.1,311.1 M122.1,300.4v7.8h6c1.5,0.1,3-0.2,4.4-1c1.6-1.2,1.9-3.6,0.7-5.2
				c-0.2-0.3-0.4-0.5-0.7-0.7c-1.3-0.8-2.9-1.1-4.4-1L122.1,300.4 M118.1,297.5h10.3c3.1,0,5.4,0.5,7.1,1.7c1.6,1,2.6,2.8,2.5,4.8
				c0.1,1.4-0.4,2.7-1.3,3.8c-1,1-2.3,1.6-3.8,1.8c1.7,0.3,3.4,1.1,4.6,2.3c2.4,2.8,2.2,7-0.6,9.4c-0.1,0.1-0.3,0.2-0.4,0.3
				c-1.8,1.3-4.4,1.9-7.7,1.9h-10.7L118.1,297.5"/>
			<path id="flowRoot5500" class="st7" d="M160.9,323.5l-11.4-26h4.2l9.4,21.9l9.4-21.9h4.2l-11.3,26H160.9"/>
			<path id="flowRoot5508" class="st7" d="M190.4,297.5h18.8v3h-14.8v7.7h14.2v3h-14.2v9.4h15.1v3h-19.2v-26"/>
			<path id="flowRoot5516" class="st7" d="M240.3,311.5c1,0.3,1.8,0.9,2.5,1.6c1,1,1.8,2.2,2.5,3.5l4.1,7.1h-4.3l-3.8-6.7
				c-0.7-1.4-1.6-2.6-2.9-3.5c-1.2-0.6-2.5-0.9-3.8-0.9h-4.4v11h-4v-26h9.1c3.4,0,5.9,0.6,7.6,1.9c1.7,1.3,2.7,3.5,2.5,5.6
				c0.1,1.5-0.4,2.9-1.3,4.1C243.2,310.4,241.8,311.2,240.3,311.5 M230.3,300.6v9.2h5.1c1.5,0.1,3.1-0.3,4.4-1.2
				c1-0.8,1.6-2.1,1.5-3.5c0.1-1.3-0.5-2.6-1.5-3.4c-1.3-0.9-2.8-1.3-4.4-1.2H230.3"/>
			<path id="flowRoot5524" class="st7" d="M279.9,298.7v3.3c-1.3-0.6-2.7-1-4.2-1.4c-1.2-0.3-2.5-0.5-3.8-0.5
				c-1.7-0.1-3.4,0.3-4.9,1.1c-1.1,0.6-1.7,1.8-1.7,3c-0.1,1,0.4,1.9,1.1,2.5c1.3,0.8,2.8,1.2,4.4,1.4l2.3,0.4
				c2.3,0.2,4.5,1.1,6.4,2.5c1.4,1.2,2.1,3,2.1,4.9c0.1,2.2-1,4.3-2.8,5.5c-1.9,1.3-4.6,1.9-8.2,1.9c-1.5,0-2.9-0.1-4.3-0.4
				c-1.6-0.3-3.2-0.7-4.7-1.2v-3.5c1.5,0.7,3,1.3,4.6,1.8c1.5,0.4,2.9,0.6,4.5,0.6c1.8,0.1,3.6-0.3,5.1-1.1c1.2-0.7,1.9-1.9,1.8-3.3
				c0-1.1-0.4-2.2-1.3-2.9c-1.3-0.8-2.7-1.4-4.2-1.6l-2.4-0.4c-2.3-0.3-4.4-1.1-6.3-2.4c-1.3-1.1-2-2.8-1.9-4.5
				c-0.1-2.1,0.9-4.1,2.7-5.2c2.2-1.4,4.8-2.1,7.4-1.9c1.4,0,2.7,0.1,4.1,0.3C277.1,298,278.5,298.3,279.9,298.7"/>
			<path id="flowRoot5532" class="st7" d="M296.4,297.5h4v26h-4V297.5"/>
			<path id="flowRoot5540" class="st7" d="M326.6,300.2c-2.5-0.1-5,0.9-6.7,2.8c-3.3,4.5-3.3,10.5,0,15c1.7,1.9,4.2,2.9,6.7,2.8
				c2.5,0.1,5-0.9,6.7-2.8c3.3-4.5,3.3-10.5,0-15C331.6,301,329.1,300,326.6,300.2 M326.6,297.4c3.6-0.2,7,1.1,9.6,3.5
				c4.8,5.4,4.8,13.5,0,18.9c-2.4,2.4-5.6,3.5-9.6,3.5c-4,0-7.3-1.2-9.7-3.5c-4.8-5.4-4.8-13.5,0-18.9
				C319.6,298.5,323,297.2,326.6,297.4"/>
			<path id="flowRoot5548" class="st7" d="M354.5,297.7h5.4l13.2,21.8v-21.8h3.9v26h-5.4L358.5,302v21.8h-3.9V297.7"/>
		</g>
		
			<linearGradient id="path5417_1_" gradientUnits="userSpaceOnUse" x1="151.7331" y1="208.7776" x2="264.9731" y2="451.2176" gradientTransform="matrix(0.9 0 0 0.9 -52.61 -273.33)">
			<stop  offset="0" style="stop-color:#FFFFFF"/>
			<stop  offset="1" style="stop-color:#FFFFFF;stop-opacity:0"/>
		</linearGradient>
		<path id="path5417" class="st8" d="M31.4,31v312.7h359V29.1h-359L31.4,31L31.4,31z"/>
	</g>
</g>
</svg>
